<?xml version="1.0" standalone="no"?>
<!DOCTYPE svg PUBLIC "-//W3C//DTD SVG 1.1//EN" "http://www.w3.org/Graphics/SVG/1.1/DTD/svg11.dtd">
<svg xmlns="http://www.w3.org/2000/svg">
<metadata>Generated by Fontastic.me</metadata>
<defs>
<font id="taliflo" horiz-adv-x="512">
<font-face font-family="taliflo" units-per-em="512" ascent="480" descent="-32"/>
<missing-glyph horiz-adv-x="512" />

<glyph unicode="&#98;" d="M512 31c0 0-115 0-115 0 0 0 0 77 0 77 0 18-5 32-15 41-10 9-37 24-79 46 14 10 21 24 21 43 0 5-3 11-7 16-5 6-8 15-10 27 0 2-3 5-7 8-4 2-6 10-7 21 0 8 2 14 6 16-2 11-3 21-4 30-1 13 2 27 12 40 9 14 25 21 48 21 24 0 40-7 49-21 10-13 14-27 13-40 0 0-4-30-4-30 4-2 6-8 6-16-1-11-3-19-7-21-4-3-7-6-8-8-2-12-5-21-9-27-5-5-7-11-7-16 0-15 4-26 11-34 7-8 20-17 39-25 39-16 61-29 67-41 2-2 3-13 4-31 1-18 2-35 3-52 0 0 0-24 0-24m-250 134c62-27 93-48 93-64 0 0 0-70 0-70 0 0-355 0-355 0 0 0 0 94 0 94 0 15 14 28 43 40 26 11 44 22 53 33 10 11 15 26 15 45 0 7-4 14-10 22-7 8-11 20-13 35-1 3-4 7-9 11-6 4-9 14-10 29 0 5 0 9 1 12 1 3 2 5 4 6 0 0 2 1 2 1-2 16-4 30-5 42-2 17 4 35 17 53 12 18 34 27 65 27 30 0 52-9 65-27 12-18 18-36 16-53 0 0-5-42-5-42 5-2 8-9 8-19-2-15-5-25-11-29-5-4-8-8-9-11-2-15-6-27-13-35-6-8-9-15-9-22 0-19 4-34 14-45 9-11 27-22 53-33"/>
<glyph unicode="&#99;" d="M392 142c70-24 105-45 105-62 0 0 0-54 0-54 0 0-241 0-241 0 0 0-241 0-241 0 0 0 0 54 0 54 0 17 35 38 105 62 32 12 54 24 65 36 12 12 18 28 18 48 0 8-4 16-12 25-7 10-12 22-16 38-1 4-2 7-5 9-2 2-4 3-7 4-2 1-4 4-7 9-2 5-4 12-4 22 0 5 0 10 2 13 2 4 3 6 5 6 0 0 2 2 2 2-3 17-5 32-6 45-2 19 5 38 21 58 15 19 42 29 80 29 38 0 65-10 81-29 16-20 22-39 20-58 0 0-6-45-6-45 6-2 9-10 9-21 0-10-2-17-4-22-3-5-5-8-7-9-3-1-5-2-7-4-3-2-4-5-5-9-3-17-8-29-16-38-8-9-12-17-12-25 0-20 6-36 18-48 12-12 34-24 65-36"/>
<glyph unicode="&#100;" d="M317 142c62-22 93-42 93-62 0 0 0-54 0-54 0 0-410 0-410 0 0 0 0 103 0 103 12 5 26 9 42 13 32 12 54 24 66 36 12 12 18 28 18 48 0 8-4 16-12 25-8 9-13 21-16 38 0 4-4 8-11 13-8 4-12 14-13 31 0 5 1 10 2 13 2 4 4 6 5 6 0 0 2 2 2 2-3 17-5 32-6 45-2 19 5 38 20 58 16 19 43 29 82 29 39 0 66-10 82-29 16-20 23-39 22-58 0 0-8-45-8-45 7-2 10-10 10-21-1-10-3-17-5-22-2-5-5-8-7-9-2-1-5-2-7-4-3-2-4-5-5-9-3-16-9-28-17-38-8-9-12-17-12-25 0-20 7-36 19-48 12-12 34-24 66-36m118 140c0 0 77 0 77 0 0 0 0-52 0-52 0 0-77 0-77 0 0 0 0-76 0-76 0 0-51 0-51 0 0 0 0 76 0 76 0 0-77 0-77 0 0 0 0 52 0 52 0 0 77 0 77 0 0 0 0 76 0 76 0 0 51 0 51 0 0 0 0-76 0-76"/>
<glyph unicode="&#101;" d="M492 217l-83 40c20 12 33 36 33 63 0 40-28 72-62 72-12 0-23-4-32-11 6-14 9-29 9-46 0-24-7-48-20-67 4-5 9-9 15-12l0 0 53-25c15-8 25-24 25-41l0-70 57 0c7 0 14 7 14 16l0 66c0 7-4 13-9 15z m-330 40c4 3 8 6 12 10-13 19-21 43-21 68 0 17 4 33 10 47-10 6-20 10-31 10-34 0-62-32-62-72 0-28 14-52 34-64l-84-39c-5-2-9-8-9-15l0-66c0-9 7-16 14-16l55 0 0 70c0 17 10 34 26 41z m232-49l-72 34-31 15c14 8 25 21 32 37 5 12 9 26 9 41 0 9-2 17-4 24-9 38-38 65-73 65-34 0-63-26-73-63-2-8-3-17-3-26 0-16 3-31 10-44 7-14 18-27 31-35l-29-13-75-35c-6-3-10-10-10-18l0-82c0-11 7-20 17-20l264 0c10 0 18 9 18 20l0 82c0 8-5 15-11 18z"/>
<glyph unicode="&#102;" d="M410 203l-80 38-34 16c15 9 27 24 35 41 6 14 10 29 10 46 0 9-1 18-4 27-10 41-42 72-81 72-38 0-70-30-81-70-2-9-4-19-4-29 0-18 4-34 11-49 8-16 20-30 35-39l-33-15-82-38c-7-4-12-12-12-21l0-91c0-12 8-22 19-22l123 0 0 70c0 0 0 1 0 2l0 0 20 35 0 0c1 1 2 2 4 2 2 0 3-1 4-2l0 0 0-1c0 0 0 0 0 0l20-34 0 0c0-1 0-2 0-2l0-70 123 0c11 0 19 10 19 22l0 91c0 9-4 17-12 21z m-130 23l0 0-20-35 0 0c-1-1-2-2-4-2-2 0-3 1-4 2l0 0 0 0c0 0 0 0 0 0l-20 35 0 0c0 0 0 1 0 2 0 2 2 4 4 4l40 0c2 0 4-2 4-4 0-1 0-2 0-2z"/>
<glyph unicode="&#103;" d="M395 209l-72 34-30 14c1 0 1 1 2 1l40 0c6 0 11 5 11 11l0 30 0 0c-1 39-14 74-34 97-14 18-34 29-56 29-24 0-46-13-60-34-17-23-29-55-30-92l0 0 0-30c0-6 5-11 11-11l41 0c0 0 1-1 2-1l-29-14-74-34c-6-3-10-9-10-17-1-1-1-2-1-3l0-82c0-11 8-20 17-20l266 0c9 0 17 9 17 20l0 82c0 4-1 8-3 11-2 4-5 7-8 9z m-264 34l0 31 0 0c2 42 13 80 30 110-8 5-18 8-28 8-34 0-62-32-62-71 0-28 14-52 33-64l-83-39c-5-3-9-8-9-15l0-66c0-9 6-16 14-16l55 0 0 69c0 18 10 34 26 42z m360-26l-83 39c19 12 33 36 33 64 0 39-28 72-62 72-10 0-20-4-28-9 17-30 28-68 30-110l0 0 0-31 24-11c16-8 26-24 26-42l0-69 55 0c8 0 14 7 14 16l0 66c0 7-4 12-9 15z"/>
<glyph unicode="&#104;" d="M175 271l0 33 0 0c1 28 7 54 18 76 1 3 2 7 3 11-9 6-20 10-32 10-37 0-66-34-66-77 0-29 14-55 36-68l-90-41c-5-3-9-9-9-16l0-71c0-9 7-17 15-17l59 0 0 74c0 19 10 36 27 44l39 18 0 24z m290-68l-80 38-34 16c1 0 2 1 3 2l44 0c7 0 13 5 13 12l0 33-1 0c-1 46-17 86-41 111-12 14-29 24-47 27-1 0-1 0-2 0-1 0-2 1-3 1-2 0-4 0-6 0-2 0-4 0-6 0-1 0-2 0-3-1-1 0-2 0-3 0-18-3-34-12-46-26-25-25-41-66-42-112l0 0 0-33c0-7 5-12 12-12l45 0c1-1 2-2 4-3l-33-15-83-38c-7-4-11-12-11-21l0-91c0-12 8-22 19-22l294 0c10 0 19 10 19 22l0 91c0 9-5 17-12 21z"/>
<glyph unicode="&#105;" d="M466 188c-1 8-6 14-11 17l-77 36-33 16c14 9 26 23 33 39 6 14 10 28 10 44 0 9-2 18-3 26-10 40-41 69-79 69-33 0-61-23-74-56-1-4-2-7-3-11-2-6-3-13-4-20 0-3 0-5 0-8 0-2 0-4 0-6 1-14 5-28 10-40 8-16 20-29 34-38l-31-14-80-37c-5-3-9-8-10-14-1-2-1-4-1-6l0-87c0-12 8-21 18-21l283 0c10 0 18 9 18 21l0 87c0 1 0 2 0 3z m-265 66l14 8c-16 21-25 49-25 78 0 21 4 41 12 58-8 4-16 6-25 6-43 0-78-49-80-111l0 0 0-26c0-6 5-10 10-10l37 0c0 0 0-1 1-1l-90-41c-5-3-9-9-9-16l0-71c0-9 7-17 15-17l59 0 0 74c0 19 11 36 27 44z"/>
<glyph unicode="&#106;" d="M207 257c4 3 9 7 13 11-14 20-22 46-22 72 0 18 3 35 10 51-10 6-21 10-33 10-36 0-66-34-66-77 0-29 15-55 36-68l-90-41c-5-3-9-9-9-16l0-71c0-9 7-17 15-17l59 0 0 74c0 19 11 36 27 44z m248-52l-77 36-33 16c14 9 26 23 33 39 6 14 10 28 10 44 0 9-2 18-3 26-10 40-41 69-79 69-36 0-67-28-77-67-3-9-4-18-4-28 0-17 4-32 11-46 7-16 19-29 33-38l-31-14-80-37c-7-3-11-11-11-20l0-87c0-12 8-21 18-21l283 0c10 0 18 9 18 21l0 87c0 9-5 16-11 20z"/>
<glyph unicode="&#107;" d="M410 203l-80 38-34 16c1 0 2 1 3 2l44 0c7 0 13 5 13 12l0 33 0 0c-2 46-18 86-41 111-13 14-29 24-48 27 0 0-1 0-2 0-1 0-2 1-3 1-2 0-4 0-6 0 0 0 0 0 0 0-2 0-4 0-6 0-1 0-2 0-3-1-1 0-2 0-2 0-18-3-35-12-47-26-24-26-40-66-42-112l0 0 0-33c0-7 6-12 13-12l44 0c2-1 3-2 4-3l-32-15-83-38c-7-4-12-12-12-21l0-91c0-12 8-22 19-22l294 0c11 0 19 10 19 22l0 91c0 9-4 17-12 21z"/>
<glyph unicode="&#108;" d="M410 203l-80 38-34 16c15 9 27 24 35 41 6 14 10 29 10 46 0 9-1 18-4 27-10 41-42 72-81 72-38 0-70-30-81-70-2-9-4-19-4-29 0-18 4-34 11-49 8-16 20-30 35-39l-32-15-83-38c-7-4-12-12-12-21l0-91c0-12 8-22 19-22l294 0c11 0 19 10 19 22l0 91c0 9-4 17-12 21z"/>
<glyph unicode="&#109;" d="M256 464c115 0 208-93 208-208 0-115-93-208-208-208-115 0-208 93-208 208 0 115 93 208 208 208z m0-399c59 0 111 27 146 69-20 8-66 24-93 32-2 1-3 1-3 11 0 8 4 16 7 23 4 8 7 21 9 32 4 5 10 14 14 32 3 16 2 22 0 28 0 0-1 1-1 2-1 4 0 23 3 38 2 10-1 34-15 52-9 12-26 26-58 28l-18 0c-31-2-49-16-58-28-14-18-17-42-15-52 3-15 4-34 3-38l0-2c-2-6-4-12-1-28 4-18 10-28 14-33 2-11 5-23 9-31 3-6 4-13 4-24 0-10-1-9-3-10-28-8-72-24-90-32 35-42 87-69 146-69z"/>
<glyph unicode="&#110;" d="M256 464c115 0 208-93 208-208 0-115-93-208-208-208-115 0-208 93-208 208 0 115 93 208 208 208z m0-17c-105 0-191-86-191-191 0-47 17-89 45-122 18 8 62 24 90 32 2 1 3 0 3 10 0 11-1 18-4 24-4 8-7 20-9 31-4 5-10 15-14 33-3 16-1 22 1 28l0 2c1 4 0 23-3 38-2 10 1 34 15 52 9 12 27 26 58 28l18 0c32-2 49-16 58-28 14-18 17-42 15-52-3-15-4-34-3-38 0 0 1-1 1-2 2-6 3-12 0-28-4-18-10-27-14-32-2-11-5-24-9-32-3-7-6-15-6-23 0-10 0-10 2-11 27-8 73-24 93-32 28 33 45 76 45 122 0 105-86 191-191 191z"/>
<glyph unicode="&#111;" d="M144 244l0 76 224 0 0-166c0-7-4-14-11-14l-28 0 0-52c0-13-11-24-24-24l-1 0c-6 0-10 2-14 5-5 4-9 11-9 19l0 52-49 0 0-52c0-13-11-24-24-24-13 0-24 11-24 24l0 52-29 0c-7 0-11 7-11 14z m264 92c13 0 24-11 24-24l0-96c0-13-11-24-24-24-13 0-24 11-24 24l0 96c0 13 11 24 24 24z m-304 0c13 0 24-11 24-24l0-96c0-13-11-24-24-24-13 0-24 11-24 24l0 96c0 13 11 24 24 24z m207 87c48-21 56-72 57-87l-224 0c1 15 8 66 56 87l-18 22c0 1 0 1 1 2 1 1 3 1 3 1l19-23c14 5 31 9 51 9 20 0 36-4 50-9l20 23c0 1 1 0 2-1l2-2z m-104-50c8 0 13 6 13 13 0 7-6 14-13 14-8 0-14-7-14-14 0-7 7-13 14-13z m98 0c7 0 14 6 14 13 0 7-7 14-14 14-8 0-13-7-13-14 0-7 6-13 13-13z"/>
<glyph unicode="&#112;" d="M352 304l-192 0 0-149 40 0 0-67c0-4 4-8 8-8 4 0 8 4 8 8l0 67 81 0 0-67c0-2 1-4 3-6l1 0c1-1 2-2 4-2l1 0c4 0 7 4 7 8l0 67 39 0z m16 16l0-166c0-7-3-15-10-15l-29 0 0-51c0-13-10-24-23-24l-1 0c-6 0-11 2-15 5-5 4-9 11-9 19l0 51-49 0 0-51c0-13-11-24-24-24-13 0-24 11-24 24l0 51-28 0c-7 0-12 8-12 15l0 166z m40 0c-4 0-8-4-8-8l0-96c0-4 4-8 8-8 4 0 8 4 8 8l0 96c0 4-4 8-8 8z m0 16c13 0 24-11 24-24l0-96c0-13-11-24-24-24-13 0-24 11-24 24l0 96c0 13 11 24 24 24z m-304-16c-4 0-8-4-8-8l0-96c0-4 4-8 8-8 4 0 8 4 8 8l0 96c0 4-4 8-8 8z m0 16c13 0 24-11 24-24l0-96c0-13-11-24-24-24-13 0-24 11-24 24l0 96c0 13 11 24 24 24z m151 82c-14 0-27-3-38-6l-10-4c-28-12-40-37-44-56l186 0c-4 18-15 43-44 56l-10 4c-12 4-25 6-39 6z m-70 30l1 0 19-23c13 5 30 9 50 9l1 0c20 0 36-4 50-9l20 23c0 0 1-1 2-1 1-1 2-3 2-3l-19-22c48-21 56-71 57-86l-224 0c1 15 9 66 57 87l-19 22c0 1 1 1 2 2z m22-75c-7 0-14 6-14 13 0 7 6 14 14 14 7 0 13-7 13-14 0-7-5-13-13-13z m98 0c-7 0-13 6-13 13 0 7 5 14 13 14 7 0 13-7 13-14 0-7-6-13-13-13z"/>
<glyph unicode="&#113;" d="M334 358c25 0 52-14 71-39-63-36-53-128 11-153-9-20-13-28-24-46-16-25-37-56-65-56l-1 0c-24 0-31 16-63 16-33 0-40-16-64-16l-1 0c-28 0-48 28-64 53-44 69-48 150-21 193 19 30 50 48 78 48 29 0 47-16 71-16 23 0 38 16 72 16z m-8 90c3-23-6-46-18-62-13-17-35-30-56-30l-1 0c-4 22 6 44 18 60 14 17 37 31 57 32z"/>
<glyph unicode="&#114;" d="M334 342c-15 0-26-4-37-8-10-4-21-8-35-8-14 0-25 4-37 8-11 4-22 8-34 8-11 0-23-3-34-10-12-7-23-18-31-31-12-18-16-47-13-77 3-34 16-69 35-99 13-21 30-45 50-45l1 0c8 0 13 3 20 6 10 5 23 10 44 10 21 0 34-5 44-10 7-3 12-6 19-6 22 0 44 35 52 48 8 12 12 20 17 31-12 7-22 16-30 28-10 15-17 33-18 52-1 18 2 37 10 53 6 12 14 22 24 30-14 13-31 20-47 20z m0 16c25 0 52-14 71-39-63-36-53-128 11-153-9-20-13-28-24-46-16-25-37-56-65-56l-1 0c-24 0-31 16-63 16-33 0-40-16-64-16l-1 0c-28 0-48 28-64 53-44 69-48 150-21 193 19 30 50 48 78 48 29 0 47-16 71-16 23 0 38 16 72 16z m-24 70c-11-5-21-13-28-22-4-5-9-13-13-23-1-3-2-6-2-9 11 4 21 11 28 21 4 5 12 18 15 33z m16 20c3-23-6-46-18-62-13-17-35-30-56-30l-1 0c-4 22 6 44 18 60 14 17 37 31 57 32z"/>
<glyph unicode="&#115;" d="M256 64l-192 192 112 0 0 192 160 0 0-192 112 0z"/>
<glyph unicode="&#116;" d="M64 256l192 192 0-112 192 0 0-160-192 0 0-112z"/>
<glyph unicode="&#117;" d="M256 448l192-192-112 0 0-192-160 0 0 192-112 0z"/>
<glyph unicode="&#118;" d="M448 256l-192-192 0 112-192 0 0 160 192 0 0 112z"/>
<glyph unicode="&#119;" d="M480 256l-96-96 0 76-109 0 1-108 76 0-96-96-96 96 76 0 0 108-108 0 0-76-96 96 96 96 0-76 108 0 0 108-76 0 96 96 96-96-76 0 0-108 108 0 0 76z"/>
<glyph unicode="&#120;" d="M99 327c-2 2-3 6-3 9 0 9 8 16 17 16l286 0c9 0 17-7 17-16 0-3-1-6-3-8l-2-3-136-156c-5-5-11-9-19-9-8 0-14 4-19 9l-136 156z"/>
<glyph unicode="&#121;" d="M327 413c2 2 6 3 9 3 9 0 16-8 16-17l0-286c0-9-7-17-16-17-3 0-7 1-9 3l-2 2-156 136c-5 5-9 11-9 19 0 8 4 14 9 19l156 136z"/>
<glyph unicode="&#122;" d="M413 185c2-2 3-6 3-9 0-9-8-16-17-16l-286 0c-9 0-17 7-17 16 0 3 1 6 3 8l2 3 136 156c5 5 11 9 19 9 8 0 14-4 19-9l136-156z"/>
<glyph unicode="&#65;" d="M185 99c-2-2-6-3-9-3-9 0-16 8-16 17l0 286c0 9 7 17 16 17 3 0 6-1 8-3l3-2 156-136c5-5 9-11 9-19 0-8-4-14-9-19l-156-136z"/>
<glyph unicode="&#66;" d="M256 464c115 0 208-93 208-208 0-115-93-208-208-208-115 0-208 93-208 208 0 115 93 208 208 208z m0-399c105 0 191 86 191 191 0 105-86 191-191 191-105 0-191-86-191-191 0-105 86-191 191-191z"/>
<glyph unicode="&#67;" d="M256 464c115 0 208-93 208-208 0-115-93-208-208-208-115 0-208 93-208 208 0 115 93 208 208 208z m0-399c105 0 191 86 191 191 0 105-86 191-191 191-105 0-191-86-191-191 0-105 86-191 191-191z m0 351c88 0 160-72 160-160 0-88-72-160-160-160-88 0-160 72-160 160 0 88 72 160 160 160z"/>
<glyph unicode="&#69;" d="M256 214l174 167c4 4 12 4 16 0l31-30c4-4 4-12 0-16l-213-204c-2-2-5-3-8-3-3 0-6 1-8 3l-213 204c-4 4-4 12 0 16l31 30c4 4 12 4 16 0z"/>
<glyph unicode="&#70;" d="M214 256l167-174c4-4 4-12 0-16l-30-31c-4-4-12-4-16 0l-204 213c-2 2-3 5-3 8 0 3 1 6 3 8l204 213c4 4 12 3 16-1l30-30c4-4 4-12 0-16z"/>
<glyph unicode="&#71;" d="M256 298l-174-167c-4-4-12-4-16 0l-31 30c-4 4-4 12 0 16l213 204c2 2 5 3 8 3 3 0 6-1 8-3l213-204c4-4 4-12 0-16l-31-30c-4-4-12-4-16 0z"/>
<glyph unicode="&#72;" d="M298 256l-167 174c-4 4-4 12 0 16l30 30c4 4 12 5 16 1l204-213c2-2 3-5 3-8 0-3-1-6-3-8l-204-213c-4-4-12-4-16 0l-30 31c-4 4-4 12 0 16z"/>
<glyph unicode="&#73;" d="M397 352l19-21-160-171-160 171 19 21 141-150z"/>
<glyph unicode="&#74;" d="M352 397l-150-141 150-141-21-19-171 160 171 160z"/>
<glyph unicode="&#75;" d="M397 160l-141 150-141-150-19 21 160 171 160-171z"/>
<glyph unicode="&#76;" d="M160 397l21 19 171-160-171-160-21 19 150 141z"/>
<glyph unicode="&#77;" d="M448 239l-33-8c-1-5-2-10-3-14l27-20-12-30-34 5c-2-4-5-7-8-11l17-29-22-23-30 17c-3-2-6-5-10-7l5-34-29-12-21 27c-4-1-9-2-14-3l-8-33-32 0-9 33c-4 1-9 2-13 3l-21-28-29 12 4 34c-4 2-7 5-11 8l-30-18-23 22 18 31c-3 4-5 7-7 11l-35-5-12 29 28 22c-1 4-1 8-2 12l-35 9 0 32 35 9c1 4 1 8 2 12l-29 22 12 30 36-5c2 4 5 7 7 10l-19 32 22 22 32-19c4 3 8 6 12 8l-5 35 29 13 22-29c4 1 8 1 12 2l9 35 32 0 9-35c4-1 8-1 12-2l22 28 29-12-5-35c4-2 7-5 11-8l30 18 22-23-17-29c3-4 5-7 7-11l35 5 12-30-28-21c1-4 2-9 3-13l33-9z m-63 10c0 4-1 8-1 12-1 13-3 25-7 37-1 4-3 8-5 12-5 11-12 22-21 31l-9 9c-10 9-19 16-31 21-4 2-8 3-11 4 0 0-7 2-11 3l-8 2c-6 1-13 3-19 3l-11 0c-13-1-26-4-38-8-4-1-7-3-11-5-11-5-22-12-31-20-2-1-4-4-5-5-1-1-3-2-4-4-9-10-16-20-21-32-2-3-4-7-5-11-4-12-6-24-7-37l0-12c0-6 1-12 2-18 0 0 1-3 3-10 2-7 3-10 3-10 1-3 3-7 4-10 5-12 12-22 21-32 2-2 2-3 4-5 1-1 3-2 4-3 9-9 20-16 32-22 4-2 7-3 11-4 12-4 24-7 37-8l13 0c12 1 25 3 37 7 3 1 7 3 11 5 10 5 20 11 29 19 0 0 3 2 7 6 4 4 6 7 6 7 8 9 14 18 19 29 2 5 4 8 5 12 4 12 7 24 8 37z m-107 116l-28-103-103-28c-1 5-2 11-2 16l0 10c0 11 3 22 7 33l3 9c5 10 11 19 19 28l8 8c8 8 17 13 27 18 3 2 7 3 10 4 11 4 22 7 33 7l10 0c5 0 11-1 16-2z m-127-147l103 28 76-76c-8-6-17-13-26-17-3-1-7-2-10-3-10-4-21-7-32-7l-11 0c-11 0-22 3-32 7-3 1-8 2-11 4-10 5-19 10-27 18-1 1-2 3-3 4l-4 4c-8 8-14 18-19 28-2 3-3 6-4 9z m211 75c4-10 6-21 7-32l0-11c-1-11-3-23-7-33-1-4-2-7-4-11-4-9-10-17-17-25l-76 76 28 104 1-1c3-1 7-2 10-3 10-5 20-11 28-19l7-7c8-8 14-18 19-28 2-3 3-7 4-10z"/>
<glyph unicode="&#78;" d="M377 299c4-12 7-25 8-37l0-13c-1-13-4-25-8-37-1-4-3-7-5-12-5-11-11-20-19-29 0 0-2-3-6-7-4-4-7-6-7-6-9-8-19-14-29-19-4-2-8-3-11-4-12-4-24-7-37-8l-13 0c-13 1-25 4-37 8-4 1-7 3-11 5-11 5-23 12-32 21l-8 8c-9 10-16 20-21 32-2 3-3 7-4 10 0 0-1 3-3 10-2 7-3 10-3 10-1 6-2 13-2 19l0 11c1 13 4 26 8 38 1 4 2 7 4 10 5 12 12 22 21 32 1 2 3 4 4 5 1 1 3 3 5 4 9 8 20 15 31 20 4 2 7 4 11 5 12 4 25 7 38 8l11 0c6 0 13-1 19-2l8-2c0 0 11-4 11-4 3-1 7-2 11-4 12-5 22-12 32-21l8-8c9-9 15-20 21-32 2-4 4-7 5-11z m-232-49c0-5 1-11 2-16l103 28 28 103c-5 1-10 2-16 2l-10 0c-11 0-22-3-33-7-3-1-8-2-11-4-10-5-18-10-26-18l-8-8c-8-9-14-18-19-28l-3-9c-4-11-7-22-7-33z m159-97c9 4 18 10 26 17l-76 76-103-28 0-1c1-3 3-6 4-9 5-10 11-20 19-28l4-4c0 0 2-3 3-4 8-8 18-13 28-18 3-2 7-3 10-4 10-4 21-6 32-7l11 0c11 0 22 3 32 7 3 1 7 2 10 3z m65 97l0 11c-1 11-3 22-7 32-1 3-2 7-4 10-5 10-11 20-19 28l-7 7c-8 8-18 14-28 19-3 2-7 2-10 3l-1 1-28-104 76-76c7 8 13 16 17 25 2 3 3 7 4 11 4 10 7 22 7 33z m79-11l-33-8c-1-5-2-10-3-14l27-20-12-30-34 5c-2-4-5-7-8-11l17-29-22-23-30 17c-3-2-6-5-10-7l5-34-29-12-21 27c-4-1-9-2-14-3l-8-33-32 0-9 33c-4 1-9 2-13 3l-21-28-29 12 4 34c-4 2-7 5-11 8l-30-18-23 22 18 31c-3 4-5 7-7 11l-35-5-12 29 28 22c-1 4-1 8-2 12l-35 9 0 32 35 9c1 4 1 8 2 12l-29 22 12 30 36-5c2 4 5 7 7 10l-19 32 22 22 32-19c4 3 8 6 12 8l-5 35 29 13 22-29c4 1 8 1 12 2l9 35 32 0 9-35c4-1 8-1 12-2l22 28 29-12-5-35c4-2 7-5 11-8l30 18 22-23-17-29c3-4 5-7 7-11l35 5 12-30-28-21c1-4 2-9 3-13l33-9z m-46-35l-8 7 2 10 3 12 1 11 10 2 22 6 0 7-22 6-10 2-1 11-3 12-2 10 8 6 18 13-3 7-22-3-10-1-6 8c-2 3-3 6-6 10l-7 8 6 10 11 18-5 6-20-12-8-5-9 7-9 6-10 6 2 10 4 23-7 2-14-18-6-8-10 2c-4 1-7 1-11 2l-11 2-3 10-5 23-7 0-6-23-3-10-11-2c-4 0-6-1-10-2l-11-2-6 8-14 19-7-3 3-23 2-11-9-5-2-1c-3-2-5-4-8-6l-9-6-9 6-21 12-5-5 12-21 6-9-6-8c-2-3-4-7-6-10l-6-9-10 2-23 3-3-7 19-14 8-6-2-10c-1-4-1-7-2-11l-2-11-10-2-23-6 0-7 23-6 10-3 1-10c1-4 2-7 3-11l2-11-8-6-19-14 3-6 23 3 10 1 6-9c2-4 4-7 6-10l6-8-5-9-12-20 5-5 20 11 9 6 9-6c3-2 6-5 10-7l9-5-2-11-3-22 7-3 13 18 6 9 11-3c4-1 8-1 12-2l10-2 3-10 5-21 8 0 5 21 2 10 11 2c4 1 8 1 12 2l10 3 7-9 13-17 7 3-4 21-1 11 9 5c2 2 4 4 7 6 0 0 1 1 2 1l8 6 9-5 19-11 5 5-11 18-5 9 6 9c2 3 6 6 8 10l5 9 11-1 21-3 3 6z"/>
<glyph unicode="&#79;" d="M452 416c16 0 28-12 28-28l0-264c0-16-12-28-28-28l-392 0c-16 0-28 12-28 28l0 264c0 16 12 28 28 28z m-375-32c-7 0-12-5-13-12l0-20 384 0 0 20c-1 7-6 12-13 12z m358-256c7 0 12 5 13 12l0 116-384 0 0-116c1-7 6-12 13-12z m-339 64l0 16 192 0 0-16z m0-32l0 16 96 0 0-16z m256 0l0 48 64 0 0-48z"/>
<glyph unicode="&#80;" d="M383 255c37-7 65-40 65-79 0-20-8-39-21-54-15-17-37-26-61-26-8 0-17 1-25 3-6 1-10 3-15 5-11-15-23-25-32-33-5-5-12-7-19-7l-102 0c-7 0-14 2-19 7-17 15-41 36-62 86-21 50-28 91-28 111 0 20 3 20 16 20l101 0c-5 17-37 19-37 46 0 17 15 32 28 37-2-8-3-14-3-21 0-19 39-30 39-53 0-3 0-6-1-9l56 0c1 5 2 10 2 14 0 36-56 36-56 84 0 28 21 55 47 62-4-14-9-23-9-35 0-32 57-50 57-88 0-13-5-25-12-37l76 0c13 0 16 0 16-20 0-4 0-8-1-13z m-17-127c33 0 50 25 50 48 0 23-17 43-39 47-4-19-11-42-21-66-4-9-8-17-12-25 6-3 13-4 22-4z"/>
<glyph unicode="&#81;" d="M398 279c45 0 82-37 82-83 0-46-37-84-82-84l-110 0 0 80 48 0-80 84-80-84 48 0 0-80-102 0c-49 0-90 41-90 91 0 40 26 74 61 86 5 29 29 51 59 51 10 0 18-3 26-7 19 40 59 67 105 67 64 0 115-53 115-118z"/>
<glyph unicode="&#82;" d="M256 204l-128 116 80 0 0 96 96 0 0-96 80 0z m209 11c11-6 17-19 15-32l-9-67c-2-13-9-20-28-20l-374 0c-18 0-26 7-28 20l-9 67c-2 13 3 26 14 32l72 55 42 0-62-62 50 0c2 0 5-1 6-3l18-45 168 0 18 45c1 2 3 3 5 3l51 0-62 62 42 0z"/>
<glyph unicode="&#83;" d="M256 384c99 0 172-70 224-129-51-50-124-127-224-127-100 0-157 60-224 128 78 79 142 128 224 128z m0-219c49 0 90 41 90 91 0 50-41 91-90 91-49 0-90-41-90-91 0-50 41-91 90-91z m0 123c0-18 14-32 32-32 8 0 14 3 20 7l0-7c0-29-23-53-52-53-29 0-52 24-52 53 0 29 23 53 52 53l8 0c-5-6-8-13-8-21z"/>
<glyph unicode="&#84;" d="M288 320l64 0-8-64-56 0 0-192-83 0 0 192-45 0 0 64 45 0 0 43c0 54 23 85 91 85l56 0 0-64-34 0c-27 0-30-9-30-26z"/>
<glyph unicode="&#85;" d="M288 320l64 0-8-64-56 0 0-192-83 0 0 192-45 0 0 64 45 0 0 43c0 54 23 85 91 85l56 0 0-64-34 0c-27 0-30-9-30-26z m42-48l4 32-62 0 0 54c0 10 1 21 9 30 10 11 25 12 37 12l18 0 0 32-40 0c-28 0-49-6-60-18-10-11-15-27-15-51l0-59-45 0 0-32 45 0 0-192 51 0 0 192z"/>
<glyph unicode="&#86;" d="M64 413l0 35 32 0 0-35z m320 35l0-177-256 0 0 177z m0-206l0-178-256 0 0 178z m-320 101l0 35 32 0 0-35z m0-69l0 34 32 0 0-34z m0-70l0 34 32 0 0-34z m0-70l0 35 32 0 0-35z m0-70l0 35 32 0 0-35z m352 349l0 35 32 0 0-35z m0-70l0 35 32 0 0-35z m0-69l0 34 32 0 0-34z m0-70l0 34 32 0 0-34z m0-70l0 35 32 0 0-35z m0-70l0 35 32 0 0-35z"/>
<glyph unicode="&#87;" d="M64 413l0 35 32 0 0-35z m303 17l-222 0 0-142 222 0z m17 18l0-177-256 0 0 177z m-17-224l-222 0 0-143 222 0z m17 18l0-178-256 0 0 178z m-320 101l0 35 32 0 0-35z m0-69l0 34 32 0 0-34z m0-70l0 34 32 0 0-34z m0-70l0 35 32 0 0-35z m0-70l0 35 32 0 0-35z m352 349l0 35 32 0 0-35z m0-70l0 35 32 0 0-35z m0-69l0 34 32 0 0-34z m0-70l0 34 32 0 0-34z m0-70l0 35 32 0 0-35z m0-70l0 35 32 0 0-35z"/>
<glyph unicode="&#88;" d="M426 330c0 0 12 2 22 6 0-16-7-32-9-36-28-50-99-123-181-84-65 31-92 30-117 24-1 0-2-1-3-1-3-1-15-5-26-1l0 197c0 16 14 31 33 35 39 7 106 5 148-74 39-74 97-72 133-66z m-338 150c4 0 8-4 8-8l0-432c0-4-4-8-8-8l-16 0c-4 0-8 4-8 8l0 432c0 4 4 8 8 8z"/>
<glyph unicode="&#89;" d="M288 214c-102 0-171-9-224-102 0 0 37 208 224 208l0 80 160-144-160-134z"/>
<glyph unicode="&#90;" d="M257 352c26 0 50-10 68-28 18-18 28-42 28-68 0-26-10-50-28-68-18-18-42-28-68-28-26 0-50 10-68 28-18 18-28 42-28 68 0 26 10 50 28 68 18 18 42 28 68 28z m0-176c44 0 80 36 80 80 0 44-36 80-80 80-44 0-80-36-80-80 0-44 36-80 80-80z m167 120c14 0 24-11 24-25l0-30c0-14-10-24-24-24l-15 0c-12 0-23-11-23-24 0-6 3-13 8-17l10-9c10-10 10-25 0-35l-22-22c-4-4-11-7-18-7-7 0-14 3-18 7l-9 9c-5 5-11 8-17 8-13 0-23-11-23-23l0-15c0-14-11-25-25-25l-30 0c-14 0-25 11-25 25l0 15c0 12-10 23-23 23-6 0-13-3-17-8l-10-9c-4-4-10-7-17-7-7 0-14 3-18 7l-22 22c-10 10-10 25 0 35l9 9c5 4 8 11 8 17 0 13-11 23-23 23l-15 0c-14 0-25 11-25 25l0 30c0 14 11 25 25 25l15 0c12 0 23 10 23 23 0 6-3 13-8 17l-9 9c-10 10-10 25 0 35l22 22c4 4 11 7 18 7 7 0 13-3 17-7l10-10c4-5 11-7 17-7 13 0 23 11 23 23l0 15c0 14 11 25 25 25l30 0c14 0 24-11 24-25l0-15c0-12 11-23 24-23 6 0 13 3 17 8l9 9c4 4 11 7 18 7 7 0 14-3 18-7l22-22c10-10 10-25 0-35l-10-9c-5-4-8-11-8-17 0-13 11-23 23-23z m8-40l0 15c0 4-3 9-8 9l-15 0c-10 0-20 4-27 12-7 8-12 17-12 27 0 11 5 21 13 28l9 9c2 2 3 5 3 7 0 2-1 4-3 6l-22 22c-2 1-4 2-6 2-2 0-4 0-6-2l-10-9c-8-8-17-13-28-13-10 0-20 4-28 11-8 7-12 18-12 28l0 15c0 5-4 9-8 9l-30 0c-4 0-9-4-9-9l0-15c0-10-4-21-12-28-8-7-17-11-27-11-11 0-21 4-28 12l-10 10c-1 1-4 2-6 2-2 0-4 0-6-2l-23-22c-2-2-2-5-2-6 0-1 0-5 2-7l9-9c8-8 13-17 13-28 0-10-4-19-11-27-7-8-18-12-28-12l-15 0c-5 0-9-5-9-9l0-30c0-4 4-9 9-9l15 0c10 0 21-4 28-12 7-8 11-17 11-27 0-11-4-21-12-29l-9-8c-3-3-3-10 0-13l22-22c1-1 4-2 6-2 2 0 4 0 6 2l10 9c7 8 17 13 28 13 10 0 19-4 27-11 8-7 12-18 12-28l0-15c0-5 4-9 9-9l30 0c5 0 9 4 9 9l0 15c0 10 4 21 12 28 8 7 17 11 27 11 11 0 21-5 29-13l9-9c2-2 4-2 6-2 2 0 4 0 6 2l23 22c3 3 3 10 0 13l-10 9c-8 7-12 17-12 28 0 10 4 20 11 28 7 8 18 12 28 12l15 0c5 0 7 4 7 8z"/>
<glyph unicode="&#48;" d="M411 256c0-24 15-43 37-56-4-13-10-26-16-38-25 6-45-3-62-20-17-17-22-37-16-62-12-6-25-12-38-16-13 22-36 37-60 37-24 0-47-15-60-37-13 4-27 10-39 16 6 25 2 45-15 62-17 17-37 21-62 15-6 12-12 26-16 39 22 13 37 36 37 60 0 24-15 43-37 56 4 13 9 26 16 38 25-6 45 3 62 20 17 17 21 37 15 62 12 6 26 12 39 16 13-22 36-37 60-37 24 0 47 15 60 37 13-4 27-10 39-16-6-25-2-45 15-62 17-17 37-26 62-20 6-12 12-25 16-38-22-13-37-32-37-56z m-155-98c54 0 98 44 98 98 0 54-44 98-98 98-54 0-98-44-98-98 0-54 44-98 98-98z"/>
<glyph unicode="&#49;" d="M424 296c14 0 24-11 24-25l0-30c0-14-10-25-24-25l-15 0c-12 0-23-10-23-23 0-6 3-13 8-17l10-9c10-10 10-25 0-35l-23-22c-4-4-10-7-17-7-7 0-14 3-18 7l-9 9c-5 5-11 8-17 8-13 0-24-11-24-23l0-15c0-14-10-25-24-25l-30 0c-14 0-25 11-25 25l0 15c0 12-10 23-23 23-6 0-13-2-17-7l-10-10c-4-4-10-7-17-7-7 0-14 3-18 7l-22 22c-10 10-10 25 0 35l9 9c5 4 8 11 8 17 0 13-11 23-23 23l-15 0c-14 0-25 11-25 25l0 30c0 14 11 25 25 25l15 0c12 0 23 10 23 23 0 6-3 13-8 17l-9 9c-10 10-10 25 0 35l22 22c4 4 11 7 18 7 7 0 14-3 18-7l9-10c4-5 11-7 17-7 13 0 23 11 23 23l0 15c0 14 11 25 25 25l30 0c14 0 25-11 25-25l0-15c0-12 10-23 23-23 6 0 13 3 17 8l9 9c4 4 11 7 18 7 7 0 14-3 18-7l22-22c10-10 10-25 0-35l-10-10c-5-4-8-10-8-16 0-13 11-23 23-23z m-87-40c0 44-36 80-80 80-44 0-80-36-80-80 0-44 36-80 80-80 44 0 80 36 80 80z"/>
<glyph unicode="&#50;" d="M449 256c0-14-2-28-5-42l58-44-48-84-67 29c-21-19-45-33-73-42l-9-73-96 0-9 73c-28 9-52 23-73 42l-68-29-48 84 58 44c-3 14-4 28-4 42 0 14 1 28 4 42l-58 44 48 84 68-29c21 19 45 33 73 42l9 73 96 0 9-73c28-9 52-23 73-42l67 29 48-84-58-44c3-14 5-28 5-42z m-192-64c35 0 64 29 64 64 0 35-29 64-64 64-35 0-64-29-64-64 0-35 29-64 64-64z"/>
<glyph unicode="&#51;" d="M448 218l-44 0c-4-14-10-27-17-39l32-32-54-54-33 32c-12-7-24-11-38-15l0-46-76 0 0 46c-13 4-26 8-38 15l-33-32-54 54 32 32c-7 12-13 25-17 39l-44 0 0 76 43 0c4 14 9 29 16 41l-30 30 54 54 29-29c13 8 27 13 42 17l0 41 76 0 0-41c15-4 29-9 42-17l29 29 54-54-30-30c7-12 13-27 16-41l43 0z m-192-16c30 0 54 24 54 54 0 30-24 54-54 54-30 0-54-24-54-54 0-30 24-54 54-54z"/>
<glyph unicode="&#52;" d="M256 480c124 0 224-100 224-224 0-124-100-224-224-224-124 0-224 100-224 224 0 124 100 224 224 224z m-192-224c0-51 20-100 56-136 31-31 71-49 113-54 6 16 22 31 8 42-9 7-17 14-25 22-3 3-11 21-9 24 6 9 7 16 9 27 3 13-4 17-15 24-16 10-31 24-47 36-8 6-18 10-21 20-3 10-4 22-10 30-15 22-13 38-11 64 0 7-1 17-2 26-30-35-46-79-46-125z m328-136c36 36 56 85 56 136 0 51-20 100-56 136-30 30-67 48-108 54l0-9 4-10-15-14-9 3-11 11-11 13-15 6c-17-3-33-8-49-15 0-2 1-4 1-7 8 3 16 5 24 8 3 1 14-7 17-9-4-5-22-17-23-23 0-2 7-7 7-11l0-18c4 3 21 22 23 22 14 4 37-19 39-27 2-8-23-26-35-37-9-9-26-13-21-26 2-4 11-22 6-26-6-5-16 10-19 13-9 11-28 7-41 7 0-19-1-33 16-46 16-12 32-27 51-35 14-6 38 8 50-1 17-12 32-24 51-32 8-4 36-21 28-33-5-8-11-16-15-25-4-9-13-20-21-26-9-7-19-19-24-32 38 7 72 25 100 53z m31 206c7-10 4-38 4-50 0-22 2-44-5-65-12 9-23 26-25 48-2 23 1 41-3 61-3 17-21 34-29 50-7 15-15 30-22 45 2-1 6-2 8-3 14-13 27-26 41-39 12-12 21-33 31-47z"/>
<glyph unicode="&#53;" d="M340 385c-1 0 0-1-1-1-1 0-4 4-3 5l2 2 2 1 1 1 0 1c0 1-1 2-1 3l0 2c1 1 2 1 3 1l1-1 2-1 1-2c0-1 1-1 2-1 2-1 4-2 5-3 3-3 5-7 6-11l0-2c-2-1-3-3-5-4-1-1-2-1-3-1-2 0-4 1-5 2-1 1-1 2-1 3 0 2-1 4-1 6 0 1-1 1-1 1l-2 0c0 0-1-1-2-1z m-55 30l-1 1c0 1 0 4 1 4l1 0c4 1 6 3 10 4l1 0c1 0 2-1 3-2 2-2 2-3 0-5l-1-2c0-1-1-2-1-3l0-1-1 0c-3 0-6 1-8 2-2 0-3 1-4 2z m-119-81l-5 0c-5 0-10 1-14 2l-3 0c0 1-1 1-2 1l0 1c-1 0 1 2 2 3 1 0 1 1 2 1 1 0 2 1 3 1 1 0 2 0 3-1l2-2c2-1 4-2 6-2l5 0c1 0 1-1 2-1l1 0 1-1c0-1 0-2-1-2z m10-7c0 0 1-1 2-1 1 0 1-1 1-1l0-4-2 0c-2 1-5 2-7 2l-8 0 0 1c1 0 1 1 2 1l8 4 1-1c1-1 2 0 3-1z m80 153c124 0 224-100 224-224 0-124-100-224-224-224-124 0-224 100-224 224 0 124 100 224 224 224z m-136-360c11-11 24-20 37-28-1 1-3 2-4 3l-7 7c-3 4-4 9-6 13l0 1c0 2-1 4-1 6 0 3-2 7-2 10l0 1c-1 1-1 2-1 3 0 1-1 3-1 4 0 3 1 5 1 8l0 3c0 3 1 5 1 8l0 2c-1 1-1 3-1 4l0 5c0 0 0 5 1 7 0 1 1 1 1 2l0 5c0 3 2 7 2 10l0 1c-2 1-2 2-3 3-2 2-2 4-2 7 0 2 0 4 1 6l0 1-1 0c-4 3-8 6-11 10-1 2-2 4-4 6l-3 3c0 0-2 3-2 4-1 2-1 4-1 6l0 2c-1 2-1 4-1 6l0 8c0 0 1 4 2 6 0 1 1 1 2 2 2 2 3 5 5 7l3 6c1 1 2 2 2 4 1 2 1 4 1 6l0 3c0 2-1 3-3 4l-1 1c-2 1-4 3-6 4l0 1c-1 4-2 5-3 9 0 1-1 3-1 3-2 1-3 3-5 4l0 5c-2 0 1 3 1 4l-1 0c-3 1-6 3-9 5-2 1-3 2-4 4-1 1-2 3-3 4-1 2-1 3-1 5 0 3 2 7 2 10l0 2-1 0 0 1c-19-30-29-65-29-101 0-51 20-100 56-136z m315 195c0 0 0-1 1-1l0 1c0 2 0 5-1 7-1 2-2 3-3 4 0 0-10-6-27 14-17 20-24 16-24 16 0 0-2-2-2-1l-1 0 0-2c0-1-1-2-1-4 0-2-1-6-1-8l0-1-1 0c-3-1-6-1-9-2-2 0-4-1-6 0-2 1-3 2-4 3-2 2-3 3-4 5-2 3-4 7-6 10l0 1c2 1 3 2 4 3l1 0c1 0 3 1 4 1 2 0 3 1 5 1l3 0c2 2 5 2 7 4l0 1c2 2 3 4 5 6l1 1-1 1-2 4 0 2c0 2 1 3 1 5l0 2c-3 0-6 1-9 1-1 2-3 5-4 7l-1 0c-2 0-3 1-5 1l-1 0c-1 1-2 2-2 3-1 2-2 3-2 5-1 4 0 8 0 12 3 0 7 1 10 1-18 11-38 20-58 25l0-1c-2-4-4-6-6-10-1-1-1-2-2-2-2 0-4-1-6-1-2 0-2 0-3-1l0-1c-2-2-4-5-6-7-3-3-6-6-9-10l0-1-1 0 0 1c-2 1-4 2-5 4-2 2-3 4-4 6-2 4-3 8-3 12 0 1 1 1 1 1 1 3 2 7 3 10 0 1 1 1 1 2l0 3-9 0 4-8 0-1-1 0c-2-1-3-3-5-4l-6-6c0 1-1 1-2 2-1 1-3 2-5 3l0 1-6 0-2-1c-1 0-1-1-2-1l-3 0c-2 0-2 0-3 2 0 1-1 1-2 1l-1 0-2-1-3-3c0 0-2-1-3-2l-1-1-6-3 0-1c0-1-1-1-1-2l0-6c0-1 1-2 1-3 1-2 1-2 3-2l2 0c1 1 3 1 4 2 2 1 3 2 4 3 1 1 3 2 3 4l0 1c0 1 1 0 2 0l2 0c1-1 3-1 4 0 1 0 1 0 2 1l2 2c0 0 3 2 4 2 2 0 3 1 4-1l0-1 2-2c1 0 1-2 2-2l2-1c1-1 1-1 1-2 0-1-1-1-1-2 0-1-1-2-2-3 0-1-1-2-1-3l-1-1c0-1 0-1 1-1l1 0c1 0 2 1 3 1l0-1c0-2-1-4-1-6 0-2-1-3-2-5 0-1 0-1-1-2-1-1-3-2-5-2-1 0-2 1-3 1-1 0-2 1-2 1-1 1-1 1-2 1l-4 0c-1 0-1-1-1-2 0-1-2-1-2-2l-1-1-1 0c-2 0-3-1-5-1l-9 0c-3-1-7-2-10-3-1 0-1-1-1-1-1-1-2-1-3-1-1-1-3-2-4-2l-5 0-1 1c-5-6-18-6-22-12l0-1c0-2-1-3-1-5 0-4 0-8-1-12 0-1-1-1-1-2l-1-1-2 0-1 1c0 0-1 0-1 1 0 1-1 2-1 3-1 2-1 3-1 5 0 3-2 4-4 6-1 1-2 2-3 2-2 1-5 1-7 1-1 0-1 1-2 1-2 0-4-1-6-1-8-2-13-8-18-14l0-1c-1-3-2-5-2-8 0-2 1-4 1-5 1-2 2-3 4-3l5 0c1 0 2 1 3 1l2 0c1 0 1-1 2-2 1-1 0-3 0-4 0-1-1-1-1-1-1-1-1-2-2-3-1-1-2-1-3-1-1 0-1-2-1-3 0-1-1-1 0-2l1-1c0 0 1-1 2-1l0-15c0-3 2-5 5-7l1-1c2-1 3-3 5-3l5 0c2 0 3 1 5 3 1 1 1 2 2 3l1 1c1 1 3 2 4 2 1 0 2 0 3-1l2-2 2-1c3-1 5-3 8-4l1-1c2 0 3 0 5-1 4-2 7-4 10-8 0 0 1-1 2-1 7-2 14-7 19-12 3-3 5-7 7-11 0-1 1-3 1-4l1-1c2-2 3-3 4-5 1-2 3-5 4-7 1 0 3-1 4-1 5-1 10-3 14-6 4-2 5-4 8-7 1-1 2-1 2-3l0-5c-1-6-4-11-10-15 0 0-1 0-1-1-2-5-4-11-6-16l-1-1c-3-4-5-7-8-11l-1-1c-1 0-1-2-2-2-4-2-9-3-13-4-1 0-1-1-1-1-2-3-5-7-8-10-1-1-2-3-3-4-2-3-3-6-5-9 0-1-1-2-2-2-4-3-9-6-13-9l-1 0-7-7c0 0-1-1-1-2-1-2-2-3-3-5-1-2-1-4-2-6l-1-2c0 0 1-1 1-2 1-6 3-19 4-25l0-1c28-15 59-24 92-24 40 0 77 12 109 34-1 1-1 2-1 3l0 2c0 2 1 3 2 5 2 3 2 7 4 10 1 3 4 6 5 9 0 1 1 3 1 4l0 2c0 0-1 3-1 4 0 2-1 5-1 7-1 3-1 5 0 8l3 6c0 0 2 4 4 6l5 5c2 2 2 3 3 5 1 3 2 6 1 9 0 2-1 4-2 6-1 2-2 3-2 5-1 3-1 7 0 10 0 1 2 3 2 4 1 2 1 3 2 5 1 2 1 3 1 5 0 3 0 6-1 8l0 2c-1 0-1 1-2 1l-1-1-2 0-1-1c-1 0-1 0-2 1l-1 0c-1 1-1 2-2 2-1 0-2 1-3 1-2 0-5 1-7 1-4 0-7-1-11-1-3 0-7 0-10 1-3 1-5 3-8 5-4 2-7 4-10 7-4 3-7 7-10 10l-1 1 0 1c0 2-1 4-1 6 0 4 1 7 2 11 1 5 1 10 3 15 1 2 1 3 1 5 0 2 1 3 1 5 0 1-1 2-1 3l0 3c0 1 1 1 1 2 3 6 8 10 15 12l1 1c2 3 5 6 7 9 0 0 1 1 2 1 4 1 7 2 11 3 3 1 5 2 8 2 3 0 6-1 8-1 3 0 6-1 8-2l10 0c2 0 3-1 5-2 1 0 1-1 2-1 1 0 1-1 2-1 5-4 9-7 14-11l11 0c2 0 4-1 6-1z"/>
<glyph unicode="&#55;" d="M224 430c12-10 36-30 36-68 0-37-21-55-43-72-7-7-15-13-15-24 0-11 8-18 14-22l18-14c23-19 43-36 43-71 0-47-47-95-135-95-74 0-110 35-110 72 0 18 10 44 40 62 32 19 75 21 98 23-7 9-16 18-16 34 0 9 3 14 5 20-6 0-11-1-16-1-54 0-85 40-85 79 0 23 10 48 32 67 29 24 64 28 92 28l106 0-33-18z m-37-224c-4 0-7 1-12 1-5 0-32-1-54-8-11-4-44-16-44-52 0-36 36-62 91-62 49 0 75 24 75 55 0 26-17 39-56 66z m15 96c12 12 13 28 13 37 0 36-22 92-65 92-13 0-28-6-36-16-9-11-11-24-11-37 0-34 20-90 64-90 13 0 27 6 35 14z m278 68l0-18-78 0 0-81-18 0 0 81-80 0 0 18 80 0 0 78 18 0 0-78z"/>
<glyph unicode="&#56;" d="M160 359c0-4-3-7-7-7l-50 0c-4 0-7 3-7 7l0 50c0 4 3 7 7 7l50 0c4 0 7-3 7-7z m128 0c0-4-3-7-7-7l-50 0c-4 0-7 3-7 7l0 50c0 4 3 7 7 7l50 0c4 0 7-3 7-7z m128 0c0-4-3-7-7-7l-50 0c-4 0-7 3-7 7l0 50c0 4 3 7 7 7l50 0c4 0 7-3 7-7z m-256-128c0-4-3-7-7-7l-50 0c-4 0-7 3-7 7l0 50c0 4 3 7 7 7l50 0c4 0 7-3 7-7z m128 0c0-4-3-7-7-7l-50 0c-4 0-7 3-7 7l0 50c0 4 3 7 7 7l50 0c4 0 7-3 7-7z m128 0c0-4-3-7-7-7l-50 0c-4 0-7 3-7 7l0 50c0 4 3 7 7 7l50 0c4 0 7-3 7-7z m-256-128c0-4-3-7-7-7l-50 0c-4 0-7 3-7 7l0 50c0 4 3 7 7 7l50 0c4 0 7-3 7-7z m128 0c0-4-3-7-7-7l-50 0c-4 0-7 3-7 7l0 50c0 4 3 7 7 7l50 0c4 0 7-3 7-7z m128 0c0-4-3-7-7-7l-50 0c-4 0-7 3-7 7l0 50c0 4 3 7 7 7l50 0c4 0 7-3 7-7z"/>
<glyph unicode="&#57;" d="M424 253c10-5 18-17 18-29 0-14-8-25-20-30 4-5 6-12 6-19 0-14-8-25-20-30 3-5 5-11 5-17 0-18-11-24-35-30-24-6-74-12-126-9-23 1-55 7-76 7l0-32-112 0 0 240 112 0 0-16c15 1 31 4 40 14 22 23 40 65 40 108 0 19-1 29 4 34 13 13 44-9 52-37 9-34 1-62-1-87l103 0c19 0 34-15 34-34 0-15-10-29-24-33z m-312-157c9 0 16 7 16 16 0 9-7 16-16 16-9 0-16-7-16-16 0-9 7-16 16-16z"/>
<glyph unicode="&#33;" d="M88 259c-10 5-18 17-18 29 0 14 8 25 20 30-4 5-6 12-6 19 0 14 8 25 20 30-3 5-5 11-5 17 0 18 11 24 35 30 24 6 74 12 126 9 23-1 55-7 76-7l0 32 112 0 0-240-112 0 0 16c-15-1-31-4-40-14-22-23-40-65-40-108 0-19 1-29-4-34-13-13-44 9-52 37-9 34-1 62 1 87l-103 0c-19 0-34 15-34 34 0 15 10 29 24 33z m312 157c-9 0-16-7-16-16 0-9 7-16 16-16 9 0 16 7 16 16 0 9-7 16-16 16z"/>
<glyph unicode="&#34;" d="M341 429c59 0 107-49 107-108 0-30-12-57-33-77l-148-150-11-11-11 11-151 153c-19 20-30 46-30 74 0 59 48 108 107 108 34 0 65-16 85-42 20 26 51 42 85 42z"/>
<glyph unicode="&#35;" d="M341 414c-38 0-71-24-85-57-14 33-47 57-85 57-51 0-92-42-92-93 0-25 10-47 26-64l151-152 148 150c17 17 29 40 29 66 0 51-41 93-92 93z m0 15c59 0 107-49 107-108 0-30-12-57-33-77l-148-150-11-11-11 11-151 153c-19 20-30 46-30 74 0 59 48 108 107 108 34 0 65-16 85-42 20 26 51 42 85 42z"/>
<glyph unicode="&#36;" d="M448 224l-48 0 0-160-96 0 0 128-96 0 0-128-96 0 0 160-48 0 192 224z"/>
<glyph unicode="&#37;" d="M256 224c30 0 55 20 62 48l114 0 0-144-352 0 0 144 114 0c7-28 32-48 62-48z m-112 64l-64 0 64 96 0-80 16 0 0 80 192 0 0-80 16 0 0 80 64-96-128 0c0-26-22-48-48-48-26 0-48 22-48 48z"/>
<glyph unicode="&#38;" d="M368 384l64-96 0-160-352 0 0 160 64 96z m45-96l-45 68 0-68z m-253 80l0-80 48 0c0-26 22-48 48-48 26 0 48 22 48 48l48 0 0 80z m-16-12l-45-68 45 0z m272-212l0 128-98 0c-7-28-32-48-62-48-30 0-55 20-62 48l-98 0 0-128z"/>
<glyph unicode="&#39;" d="M395 171c30 0 53-24 53-54 0-30-23-53-53-53-30 0-54 23-54 53 0 30 24 54 54 54z m-139 0c30 0 53-24 53-54 0-30-23-53-53-53-30 0-53 23-53 53 0 30 23 54 53 54z m-139 0c30 0 54-24 54-54 0-30-24-53-54-53-30 0-53 23-53 53 0 30 23 54 53 54z m278 138c30 0 53-23 53-53 0-30-23-53-53-53-30 0-54 23-54 53 0 30 24 53 54 53z m-139 0c30 0 53-23 53-53 0-30-23-53-53-53-30 0-53 23-53 53 0 30 23 53 53 53z m-139 0c30 0 54-23 54-53 0-30-24-53-54-53-30 0-53 23-53 53 0 30 23 53 53 53z m278 32c-30 0-54 24-54 54 0 30 24 53 54 53 30 0 53-23 53-53 0-30-23-54-53-54z m-139 107c30 0 53-23 53-53 0-30-23-54-53-54-30 0-53 24-53 54 0 30 23 53 53 53z m-139 0c30 0 54-23 54-53 0-30-24-54-54-54-30 0-53 24-53 54 0 30 23 53 53 53z"/>
<glyph unicode="&#40;" d="M395 171c30 0 53-24 53-54 0-30-23-53-53-53-30 0-54 23-54 53 0 30 24 54 54 54z m0-91c21 0 37 16 37 37 0 21-16 38-37 38-21 0-38-17-38-38 0-21 17-37 38-37z m-139 91c30 0 53-24 53-54 0-30-23-53-53-53-30 0-53 23-53 53 0 30 23 54 53 54z m0-91c21 0 37 16 37 37 0 21-16 38-37 38-21 0-37-17-37-38 0-21 16-37 37-37z m-139 91c30 0 54-24 54-54 0-30-24-53-54-53-30 0-53 23-53 53 0 30 23 54 53 54z m0-91c21 0 38 16 38 37 0 21-17 38-38 38-21 0-37-17-37-38 0-21 16-37 37-37z m278 229c30 0 53-23 53-53 0-30-23-53-53-53-30 0-54 23-54 53 0 30 24 53 54 53z m0-90c21 0 37 16 37 37 0 21-16 37-37 37-21 0-38-16-38-37 0-21 17-37 38-37z m-139 90c30 0 53-23 53-53 0-30-23-53-53-53-30 0-53 23-53 53 0 30 23 53 53 53z m0-90c21 0 37 16 37 37 0 21-16 37-37 37-21 0-37-16-37-37 0-21 16-37 37-37z m-139 90c30 0 54-23 54-53 0-30-24-53-54-53-30 0-53 23-53 53 0 30 23 53 53 53z m0-90c21 0 38 16 38 37 0 21-17 37-38 37-21 0-37-16-37-37 0-21 16-37 37-37z m278 122c-30 0-54 24-54 54 0 30 24 53 54 53 30 0 53-23 53-53 0-30-23-54-53-54z m0 91c-21 0-38-16-38-37 0-21 17-38 38-38 21 0 37 17 37 38 0 21-16 37-37 37z m-139 16c30 0 53-23 53-53 0-30-23-54-53-54-30 0-53 24-53 54 0 30 23 53 53 53z m0-91c21 0 37 17 37 38 0 21-16 37-37 37-21 0-37-16-37-37 0-21 16-38 37-38z m-139 91c30 0 54-23 54-53 0-30-24-54-54-54-30 0-53 24-53 54 0 30 23 53 53 53z m0-91c21 0 38 17 38 38 0 21-17 37-38 37-21 0-37-16-37-37 0-21 16-38 37-38z"/>
<glyph unicode="&#41;" d="M417 448c18 0 31-13 31-30l0-321c0-17-13-33-31-33l-320 0c-18 0-33 16-33 33l0 321c0 17 15 30 33 30z m-234-320l0 171-55 0 0-171z m-26 197c18 0 30 13 30 29 0 17-11 30-29 30-18 0-30-13-30-30 0-16 11-29 29-29z m227-197l0 100c0 51-27 75-63 75-29 0-42-17-50-28l0 24-55 0 0-171 55 0 0 97c0 5 0 10 2 14 4 10 13 20 28 20 20 0 28-15 28-37l0-94z"/>
<glyph unicode="&#42;" d="M183 128l-55 0 0 171 55 0z m-26 197c-18 0-29 13-29 29 0 17 12 30 30 30 18 0 29-13 29-30 0-16-12-29-30-29z m164-22c36 0 63-24 63-75l0-100-55 0 0 94c0 22-8 37-28 37-15 0-24-10-28-20-2-4-2-9-2-14l0-97-55 0 0 171 55 0 0-24c8 11 21 28 50 28z m96 145c18 0 31-13 31-30l0-321c0-17-13-33-31-33l-320 0c-18 0-33 16-33 33l0 321c0 17 15 30 33 30z m-3-352c1 0 2 1 2 2l0 316c0 1-1 2-2 2l-316 0c0 0-2-1-2-2l0-315c0 0 1-3 3-3z"/>
<glyph unicode="&#43;" d="M256 480c74 0 134-59 134-133 0-17-3-34-9-50l-1-1c0-1-1-3-1-4l-1-1-122-259-122 260c0 1-2 3-2 4l0 1c-6 16-10 34-10 50 0 74 60 133 134 133z m0-175c26 0 47 21 47 47 0 26-21 47-47 47-26 0-47-21-47-47 0-26 21-47 47-47z"/>
<glyph unicode="&#44;" d="M256 480c74 0 134-59 134-133 0-17-3-34-9-50l-1-1c0-1-1-3-1-4l-1-1-122-259-122 260c0 1-2 3-2 4l0 1c-6 16-10 34-10 50 0 74 60 133 134 133z m109-177c6 14 9 29 9 44 0 65-53 117-118 117-65 0-118-52-118-117 0-15 3-31 9-45 0-1 1-1 1-2l1-2 107-227 107 227 1 2c0 1 1 1 1 2z m-109 113c35 0 64-29 64-64 0-35-29-64-64-64-35 0-64 29-64 64 0 35 29 64 64 64z m0-111c26 0 47 21 47 47 0 26-21 47-47 47-26 0-47-21-47-47 0-26 21-47 47-47z"/>
<glyph unicode="&#45;" d="M473 375c4-3 7-8 7-14l0-281c0-6-3-11-8-14-2-1-5-2-7-2-3 0-5 0-7 2l-97 66-97-66c-5-3-11-3-16 0l-97 66-97-66c-4-3-10-3-15 0-5 3-7 8-7 14l0 281c0 6 3 11 7 14l105 71c5 3 10 3 15 0l97-66 97 66c5 3 10 3 15 0z m-338-216l0 241-71-49 0-242z m32 0l73-49 0 131-4-13c-7 2-14 6-21 10l9 13c6-4 10-6 16-8l0 109-73 49 0-101c4-2 8-4 12-7l-9-13c-1 1-2 1-3 2z m105-49l73 49 0 109-2-2c-2-2-3-4-5-6l-12 11c2 2 3 4 5 6 3 3 6 7 9 10l5-5 0 119-73-49 0-112 6 0 3-15c-3 0-6-1-9-1z m176 0l0 242-71 49 0-88c3 1 5 2 8 2l3-15c-4-1-7-2-11-4l0-137z m-349 146l0-1-16 5 1 1c2 7 4 13 9 20l13-9c-4-5-5-10-7-16z m30 35c-3-1-11-5-14-7l-11 12c4 3 7 6 11 8 3 2 7 3 10 4l5-15c-2-1 1-1-1-2z m167-45c5 2 11 5 16 10l10-12c-6-6-12-9-19-12z m-98 28c4-4 6-7 10-11l-11-12c-4 4-7 9-11 13l-3 3 12 11c1-1 2-3 3-4z m210 8l-12 12 11 10-11 10 12 12 10-11 10 11 12-12-11-10 11-10-12-12-10 11z"/>
<glyph unicode="&#46;" d="M448 128l-384 0 0 242 131-100-68-77 2-2 79 70 48-37 48 37 79-70 2 2-68 77 131 100z m-8 256l-184-140-184 140z"/>
<glyph unicode="&#47;" d="M64 384l384 0 0-256-384 0z m192-140l163 124-326 0z m-176-100l352 0 0 214-115-88 68-77-2-2-79 70-48-37-48 37-79-70-2 2 68 77-115 88z"/>
<glyph unicode="&#58;" d="M368 288c-26 0-48 22-48 48 0 26 22 48 48 48 26 0 48-22 48-48 0-26-22-48-48-48z m84 160c16 0 28-12 28-28l0-328c0-16-12-28-28-28l-392 0c-16 0-28 12-28 28l0 328c0 16 12 28 28 28z m-103-198l99-106 0 260c0 7-6 12-13 12l-358 0c-7 0-12-5-13-12l0-260 126 152c4 4 10 8 17 8 7 0 13-2 17-7l54-59 4-4c3-2 7-4 11-4 4 0 8 2 12 5l18 16c4 3 8 5 13 5 5 0 10-2 13-6z"/>
<glyph unicode="&#59;" d="M458 372c13-1 23-12 22-24l-14-263c-1-13-12-22-25-21l-330 16c-13 1-23 10-22 23l2 46-15-1c-12-1-22 7-23 18l-21 236c-1 11 7 21 19 22l296 24c12 1 22-7 23-18l5-54z m-355-6c1 12 11 22 24 22l219-11-2 31-1 0 0 1c-1 5-5 8-10 8l-261-22c-5 0-10-4-10-9l0-1 16-178 18 25z m334-236l10 198 0 1c0 6-5 10-11 10l-58 3-29 2-204 9c-6 0-11-4-12-9l0-1-3-63-7-128 0-7 6 7 102 109c4 4 8 6 14 6 6 0 11-3 14-7l43-49 3-3c2-2 6-4 10-4 4 0 5 1 9 3l17 12c4 3 7 4 11 4 4 0 9-2 11-5l27-33z m-64 120c-20 0-35 15-35 35 0 20 16 35 35 35 20 0 35-16 35-35 0-19-16-35-35-35z"/>
<glyph unicode="&#60;" d="M33 256c0 5-1 11-1 16 0 115 93 208 208 208 5 0 11-1 16-1l0-223z m77-146c-26 32-42 71-45 114l223 0 0 223c43-3 82-19 114-45 47-38 78-96 78-162 0-115-93-208-208-208-66 0-124 31-162 78z"/>
<glyph unicode="&#61;" d="M64 240l208 0 0 208c5 0 11-1 16-1 17-1 33-4 49-9 24-8 46-21 65-36 47-38 78-96 78-162 0-115-93-208-208-208-66 0-124 31-162 78-15 19-28 41-36 65-5 16-8 32-9 49 0 5-1 11-1 16z m17-16c2-20 6-40 14-59 7-16 15-30 26-44 5-6 10-12 15-17 12-12 24-22 38-30 7-4 15-8 23-11 24-10 49-15 75-15 26 0 51 5 75 15 23 10 43 23 61 41 18 18 31 38 41 61 10 24 15 49 15 75 0 26-5 51-15 75-3 8-8 15-12 22-8 14-17 27-29 39-5 5-11 10-17 15-14 11-28 19-44 26-19 8-39 12-59 14l0-207z m-49 48c0 115 93 208 208 208 5 0 11-1 16-1l0-223-223 0c0 5-1 11-1 16z m16 0l192 0 0 192c-26 0-51-5-75-15-23-10-43-23-61-41-18-18-31-38-41-61-10-24-15-49-15-75z"/>
<glyph unicode="&#62;" d="M332 284c20-10 36-31 36-55 0-17-3-21-15-21l-81 0-12-176-8 0-12 176-81 0c-12 0-15 5-15 21 0 24 16 45 36 55 1 0 3 1 4 2 7 4 12 11 14 19l18 118 0 5c0 7-4 10-10 13-1 0-1 1-2 1-7 3-12 9-12 17 0 20 6 21 18 21l92 0c12 0 18-1 18-21 0-8-5-14-12-17-1 0-1-1-2-1-6-3-10-6-10-13l0-5 18-118c2-8 7-15 14-19 1-1 3-2 4-2z"/>
<glyph unicode="&#63;" d="M32 240l448 240-112-448-112 112-80-112-16 160z m319-145l80 323-322-173 83-31 192 154-128-176z"/>
<glyph unicode="&#64;" d="M127 413c11-5 18-16 18-29 0-13-7-24-18-29l0-275c0-9-7-16-16-16-9 0-16 7-16 16l0 278c-8 6-14 15-14 26 0 11 6 20 14 26l0 22c0 9 7 16 16 16 9 0 16-7 16-16z m96-194c9-6 15-16 15-27 0-11-6-21-15-27l0-85c0-9-7-16-16-16-9 0-16 7-16 16l0 84c-10 5-17 16-17 28 0 12 7 23 17 28l0 212c0 9 7 16 16 16 9 0 16-7 16-16z m96 130c10-6 16-16 16-28 0-12-6-22-16-28l0-213c0-9-7-16-16-16-9 0-16 7-16 16l0 213c-10 6-16 16-16 28 0 12 6 22 16 28l0 83c0 9 7 16 16 16 9 0 16-7 16-16z m112-220c0-12-6-22-16-28l0-21c0-9-7-16-16-16-9 0-16 7-16 16l0 21c-10 6-16 16-16 28 0 12 6 22 16 28l0 275c0 9 7 16 16 16 9 0 16-7 16-16l0-275c10-6 16-16 16-28z"/>
<glyph unicode="&#91;" d="M0 399l0 32 304 0 0-32z m432 0l0 32 80 0 0-32z m-432-159l0 32 80 0 0-32z m208 0l0 32 304 0 0-32z m-208-162l0 32 304 0 0-32z m432 0l0 32 80 0 0-32z m-240 122c0-22-22-40-48-40-26 0-48 18-48 40l0 112c0 22 22 40 48 40 26 0 48-18 48-40z m224 160c0-22-22-40-48-40-26 0-48 18-48 40l0 112c0 22 22 40 48 40 26 0 48-18 48-40z m0-320c0-22-22-40-48-40-26 0-48 18-48 40l0 112c0 22 22 40 48 40 26 0 48-18 48-40z"/>
<glyph unicode="&#93;" d="M96 239l0 32 320 0 0-32z m0 96l0 32 320 0 0-32z m0-192l0 32 320 0 0-32z"/>
<glyph unicode="&#94;" d="M417 288c17 0 31-14 31-32 0-18-14-32-31-32l-322 0c-17 0-31 14-31 32 0 18 14 32 31 32z m0 128c17 0 31-14 31-32 0-18-14-32-31-32l-322 0c-17 0-31 14-31 32 0 18 14 32 31 32z m0-256c17 0 31-14 31-32 0-18-14-32-31-32l-322 0c-17 0-31 14-31 32 0 18 14 32 31 32z"/>
<glyph unicode="&#95;" d="M413 323l-250-251-91 91 251 250z m59 101c12-12 11-32-2-45l-45-45-91 91 45 45c13 13 33 14 45 2z m-426-343l18 68 85-85-68-18z m-14-49l9 32 23-23z"/>
<glyph unicode="&#96;" d="M256 480c124 0 224-100 224-224 0-124-100-224-224-224-124 0-224 100-224 224 0 124 100 224 224 224z m128-240l0 32-256 0 0-32z"/>
<glyph unicode="&#123;" d="M256 464c115 0 208-93 208-208 0-115-93-208-208-208-115 0-208 93-208 208 0 115 93 208 208 208z m0-399c105 0 191 86 191 191 0 105-86 191-191 191-105 0-191-86-191-191 0-105 86-191 191-191z m-128 182l0 17 256 0 0-17z"/>
<glyph unicode="&#124;" d="M432 272c9 0 16-7 16-16 0-9-7-16-16-16l-80 0c-9 0-16 7-16 16 0 9 7 16 16 16z m-256-16c0-9-7-16-16-16l-80 0c-9 0-16 7-16 16 0 9 7 16 16 16l80 0c9 0 16-7 16-16z m80-80c9 0 16-7 16-16l0-80c0-9-7-16-16-16-9 0-16 7-16 16l0 80c0 9 7 16 16 16z m0 272c9 0 16-7 16-16l0-80c0-9-7-16-16-16-9 0-16 7-16 16l0 80c0 9 7 16 16 16z m69-152c-4 8-1 17 6 22l70 40c7 4 17 2 21-6 5-8 2-18-5-22l-70-40c-7-4-17-2-22 6z m-138-80c4-8 2-17-6-22l-69-40c-8-4-18-2-22 6-5 8-2 17 6 22l69 40c8 4 17 2 22-6z m131-35l40-69c4-8 2-18-6-22-8-5-17-2-22 6l-40 69c-4 8-2 17 6 22 8 4 18 2 22-6z m-136 235l40-69c4-8 2-17-6-22-8-4-17-2-22 6l-40 69c-4 8-2 18 6 22 8 5 18 2 22-6z m114-91c-8 5-10 14-6 22l40 69c5 8 14 11 22 6 8-4 10-14 6-22l-40-69c-5-8-14-10-22-6z m-80-138c8-5 10-15 6-22l-40-70c-5-7-14-10-22-5-8 4-10 14-6 21l40 70c5 7 14 10 22 6z m200-5c8-5 11-14 6-22-4-8-14-10-22-6l-69 40c-8 5-10 14-6 22 5 8 14 10 22 6z m-320 148c-8 5-11 14-6 22 4 8 14 10 22 6l69-40c8-5 10-14 6-22-5-8-14-10-22-6z"/>
<glyph unicode="&#125;" d="M480 286c0-3 0-6-1-9-4-8-15-12-23-7-4 3-6 7-7 11 0 5-1 9-2 14-5 20-12 40-22 58-12 22-28 41-47 56-18 15-39 26-62 33-20 7-42 9-64 9-1 0-2 0-4 0-3 0-6 0-9-1-7 0-13-1-20-2-13-3-25-6-37-11-21-9-40-20-57-35-17-15-31-32-42-52-12-21-20-45-24-70-2-11-3-22-2-34 0-5 0-11 1-16 1-6 2-13 3-19 5-24 14-47 28-67 13-20 29-38 48-52 20-15 42-26 65-33 25-7 51-10 77-7 25 2 49 8 72 19 11 6 22 12 32 20 10 7 19 15 27 24 4 5 8 9 12 14 3 5 7 10 10 15 6 10 12 20 17 31 3 8 7 17 11 25 1 4 3 9 4 13 1 4 1 7 2 11 1-9 0-17-1-26-1-5-2-11-4-16-1-5-3-10-5-15-3-9-8-19-13-28-5-11-12-21-20-30-8-9-16-18-25-26-19-15-40-28-62-36-23-9-48-14-72-15-26-1-52 3-76 11-23 7-45 18-65 33-19 14-36 31-49 50-7 10-14 20-19 31-5 11-10 22-13 33-6 19-9 37-10 56-1 20 1 39 6 58 5 24 14 47 27 68 11 18 26 35 42 50 17 15 35 27 55 36 23 11 48 18 74 21 10 1 20 1 29 1 13 0 26-2 38-4 24-5 47-14 68-26 22-13 41-29 57-48 15-18 27-37 36-59 4-10 8-21 11-31 2-9 3-17 5-26z"/>
<glyph unicode="&#126;" d="M288 352c0-18-14-32-32-32-18 0-32 14-32 32l0 96c0 18 14 32 32 32 18 0 32-14 32-32z m-32-160c18 0 32-14 32-32l0-96c0-18-14-32-32-32-18 0-32 14-32 32l0 96c0 18 14 32 32 32z m192 96c18 0 32-14 32-32 0-18-14-32-32-32l-96 0c-18 0-32 14-32 32 0 18 14 32 32 32z m-288 0c18 0 32-14 32-32 0-18-14-32-32-32l-96 0c-18 0-32 14-32 32 0 18 14 32 32 32z m187 13c-13-12-33-12-46 0-12 13-12 33 0 46l68 67c13 13 33 13 45 0 13-12 13-32 0-45z m-136-90c12-13 12-33 0-46l-68-68c-13-12-33-12-45 0-13 13-13 33 0 46l67 68c13 12 33 12 46 0z m203-68c13-13 13-33 0-45-12-13-32-13-45 0l-68 67c-12 13-12 33 0 46 13 12 33 12 46 0z m-203 203c12-12 12-32 0-45-13-12-33-12-46 0l-67 68c-13 13-13 33 0 45 12 13 32 13 45 0z"/>
<glyph unicode="&#92;" d="M192 416c0 43 21 64 64 64 43 0 64-21 64-64 0-43-21-64-64-64-43 0-64 21-64 64z m-144-160c0 32 16 48 48 48 32 0 48-16 48-48 0-32-16-48-48-48-32 0-48 16-48 48z m312 112c0 5 3 8 8 8 5 0 8-3 8-8 0-5-3-8-8-8-5 0-8 3-8 8z m-180 36c10-10 15-22 15-36 0-14-5-26-15-36-10-10-22-15-36-15-14 0-26 5-36 15-10 10-15 22-15 36 0 14 5 26 15 36 10 10 22 15 36 15 14 0 26-5 36-15z m220-148c0 11 5 16 16 16 11 0 16-5 16-16 0-11-5-16-16-16-11 0-16 5-16 16z m-55-113c0 16 8 24 24 24 16 0 24-8 24-24 0-16-8-24-24-24-16 0-24 8-24 24z m-121-47c0 21 11 32 32 32 21 0 32-11 32-32 0-21-11-32-32-32-21 0-32 11-32 32z m-120 48c0 27 13 40 40 40 27 0 40-13 40-40 0-27-13-40-40-40-27 0-40 13-40 40z"/>
<glyph unicode="&#57344;" d="M273 211l0-58c49 9 86 51 86 103 0 16-3 31-10 44-2 6-6 12-9 17l47 43c1-1 2-2 3-4 21-28 33-62 33-100l0-4c-1-71-48-132-111-154-13-5-26-8-39-9l0-57-76 67-26 23 44 39z m-184 49c2 72 48 133 113 155 12 4 24 7 37 8l0 57 76-67 26-23-44-39-59-51 1 58c-49-8-86-51-86-102 0-16 3-31 10-45 2-6 6-11 9-16l-47-44c-1 2-2 4-3 5-21 28-33 63-33 100z"/>
<glyph unicode="&#57348;" d="M400 339c0-31-13-59-30-83-11-15-22-28-32-45-22-38-18-73-18-82l0-1-32 0 0 128 32 64-16 0-32-64 0-128-32 0 0 128-31 64-17 0 32-64 0-128-32 0 0 1c0 7 3 44-19 82-10 17-20 30-31 45-17 24-30 52-30 83 0 78 66 141 144 141 78 0 144-63 144-141z m-176-307l0 16 64 0 0-16z m-16 32l0 16 96 0 0-16z m0 32l0 16 96 0 0-16z"/>
<glyph unicode="&#57349;" d="M400 339c0-31-13-59-30-83-11-15-22-28-32-45-22-38-18-73-18-82l0-1-128 0 0 1c0 7 3 44-19 82-10 17-20 30-31 45-17 24-30 52-30 83 0 78 66 141 144 141 78 0 144-63 144-141z m-49-81l6 8c16 22 27 47 27 73 0 33-16 65-40 89-24 24-55 36-88 36-33 0-64-12-88-36-24-24-40-56-40-89 0-26 11-51 27-73l19-26c5-6 9-13 13-21 17-29 21-58 21-75l16 0 0 112-32 64 17 0 31-64 0-112 32 0 0 112 31 64 17 0-32-64 0-112 16 0c0 17 4 45 21 75 8 14 16 25 24 36 1 1 1 2 2 3z m-127-226l0 16 64 0 0-16z m-16 32l0 16 96 0 0-16z m0 32l0 16 96 0 0-16z"/>
<glyph unicode="&#57350;" d="M224 224l0 48-152 0c-4 0-8 4-8 8l0 16c0 4 4 8 8 8l152 0 0 48 64-64z m216 224c4 0 8-4 8-8l0-302c0-8 0-10-9-15l-119-59 0 64-152 0c-4 0-8 4-8 8l0 104 32 0 0-80 128 0 0 224 48 32-176 0 0-80-32 0 0 104c0 4 4 8 8 8z"/>
<glyph unicode="&#57351;" d="M384 352l64-64-64-64 0 48-152 0c-4 0-8 4-8 8l0 16c0 4 4 8 8 8l152 0z m-32-16l-32 0 0 80-176 0 48-32 0-224 128 0 0 80 32 0 0-104c0-4-4-8-8-8l-152 0 0-64-119 59c-9 5-9 7-9 15l0 302c0 4 4 8 8 8l272 0c4 0 8-4 8-8z"/>
<glyph unicode="&#57352;" d="M352 134l0 59 38 31 0-109c0-11-8-19-19-19l-288 0c-11 0-19 9-19 19l0 218c0 11 8 19 19 19l120 0c-29-18-43-38-43-38l-58 0 0-180z m-32 154c-84 0-116-24-160-96 0 0 5 164 160 164l0 60 128-96-128-96z"/>
<glyph unicode="&#57353;" d="M256 288c18 0 32-14 32-32 0-18-14-32-32-32-18 0-32 14-32 32 0 18 14 32 32 32z m-128 0c18 0 32-14 32-32 0-18-14-32-32-32-18 0-32 14-32 32 0 18 14 32 32 32z m256 0c18 0 32-14 32-32 0-18-14-32-32-32-18 0-32 14-32 32 0 18 14 32 32 32z"/>
<glyph unicode="&#57354;" d="M114 208c-28 0-50 21-50 48 0 26 22 48 50 48 28 0 50-22 50-48 0-27-22-48-50-48z m142 0c-28 0-50 21-50 48 0 26 22 48 50 48 28 0 50-22 50-48 0-27-22-48-50-48z m142 0c-28 0-50 21-50 48 0 26 22 48 50 48 28 0 50-22 50-48 0-27-22-48-50-48z"/>
<glyph unicode="&#57355;" d="M256 274c-10 0-18-8-18-18 0-10 8-18 18-18 10 0 18 8 18 18 0 10-8 18-18 18z m0 14c18 0 32-14 32-32 0-18-14-32-32-32-18 0-32 14-32 32 0 18 14 32 32 32z m-128-14c-10 0-18-8-18-18 0-10 8-18 18-18 10 0 18 8 18 18 0 10-8 18-18 18z m0 14c18 0 32-14 32-32 0-18-14-32-32-32-18 0-32 14-32 32 0 18 14 32 32 32z m256-14c-10 0-18-8-18-18 0-10 8-18 18-18 10 0 18 8 18 18 0 10-8 18-18 18z m0 14c18 0 32-14 32-32 0-18-14-32-32-32-18 0-32 14-32 32 0 18 14 32 32 32z"/>
<glyph unicode="&#57356;" d="M343 197c7 0 14 1 21 3-4-7-7-12-12-18-21-25-53-41-88-41-64 0-116 51-116 115 0 52 34 96 81 111 7 2 14 3 22 4-4-6-8-12-11-18-7-14-11-30-11-47 0-29 11-56 32-77 21-21 48-32 77-32z"/>
<glyph unicode="&#57357;" d="M343 197c7 0 14 1 21 3-4-7-7-12-12-18-21-25-53-41-88-41-64 0-116 51-116 115 0 52 34 96 81 111 7 2 14 3 22 4-4-6-8-12-11-18-7-14-11-30-11-47 0-29 11-56 32-77 21-21 48-32 77-32z m-79-40c25 0 48 9 65 24-65 5-116 59-116 125 0 14 2 28 6 40-33-16-55-51-55-90 0-55 45-99 100-99z"/>
<glyph unicode="&#57358;" d="M256 464c115 0 208-93 208-208 0-115-93-208-208-208-115 0-208 93-208 208 0 115 93 208 208 208z m0-336l96 224-224-96 128 0z"/>
<glyph unicode="&#57359;" d="M480 480l-192-448 0 256-256 0z"/>
<glyph unicode="&#57360;" d="M256 448c-51 0-99-21-135-57-36-36-57-84-57-135 0-51 21-99 57-135 36-36 84-57 135-57 51 0 99 21 135 57 36 36 57 84 57 135 0 51-21 99-57 135-36 36-84 57-135 57z m0 16c115 0 208-93 208-208 0-115-93-208-208-208-115 0-208 93-208 208 0 115 93 208 208 208z m96-112l-96-224 0 128-128 0z"/>
<glyph unicode="&#57361;" d="M24 512l464 0 0-512-464 0z m40-64l0-64 256 0 0 64z m384-352l0 48-384 0 0-48z m0 96l0 48-384 0 0-48z m0 96l0 48-384 0 0-48z"/>
<glyph unicode="&#57362;" d="M384 247l-120 0 0-119-17 0 0 119-119 0 0 17 119 0 0 120 17 0 0-120 120 0z"/>
<glyph unicode="&#57363;" d="M448 288l0-64-160 0 0-160-64 0 0 160-160 0 0 64 160 0 0 160 64 0 0-160z"/>
<glyph unicode="&#57364;" d="M417 288c17 0 31-14 31-32 0-18-14-32-31-32l-129 0 0-129c0-17-14-31-32-31-18 0-32 14-32 31l0 129-129 0c-17 0-31 14-31 32 0 18 14 32 31 32l129 0 0 129c0 17 14 31 32 31 18 0 32-14 32-31l0-129z"/>
<glyph unicode="&#57365;" d="M256 480c124 0 224-100 224-224 0-124-100-224-224-224-124 0-224 100-224 224 0 124 100 224 224 224z m128-240l0 32-112 0 0 112-32 0 0-112-112 0 0-32 112 0 0-112 32 0 0 112z"/>
<glyph unicode="&#57366;" d="M256 464c115 0 208-93 208-208 0-115-93-208-208-208-115 0-208 93-208 208 0 115 93 208 208 208z m0-399c105 0 191 86 191 191 0 105-86 191-191 191-105 0-191-86-191-191 0-105 86-191 191-191z m8 319l0-120 120 0 0-17-120 0 0-119-17 0 0 119-119 0 0 17 119 0 0 120z"/>
<glyph unicode="&#57367;" d="M345 435c25-19 39-46 39-83 0-22-8-42-19-57-7-9-21-21-40-36l-21-14c-10-8-17-18-20-28-2-6-3-19-3-29 0-2-1-6-7-6l-62 0c-7 0-7 3-7 5 1 26 4 49 15 66 15 23 57 48 57 48 6 5 11 9 15 15 7 10 12 21 12 32 0 13-3 26-11 36-10 12-21 18-41 18-20 0-32-11-40-24-8-13-7-29-7-43l-77 0c0 54 14 88 44 108 20 14 45 20 75 20 39 0 70-7 98-28z m-103-293c27-1 47-20 46-48-1-28-22-46-49-45-26 1-46 19-45 47 1 28 22 47 48 46z"/>
<glyph unicode="&#57368;" d="M256 480c124 0 224-100 224-224 0-124-100-224-224-224-124 0-224 100-224 224 0 124 100 224 224 224z m20-327c1 18-12 31-29 31-16 0-30-11-30-29 0-18 12-30 28-30 17 0 31 10 31 28z m49 128c7 10 12 22 12 36 0 23-9 40-25 52-17 13-37 18-62 18-19 0-34-4-47-13-19-13-28-34-28-68l49 0c0 9-1 19 4 27 5 8 13 15 26 15 13 0 19-3 25-11 5-7 8-15 8-23 0-7-4-14-8-20-2-4-6-7-10-10 0 0-26-15-35-30-7-11-9-24-10-41 0-1 0-4 4-4l39 0c0 0 5 3 5 4 0 6 1 15 2 19 2 7 6 12 12 17l14 9c12 9 21 17 25 23z"/>
<glyph unicode="&#57369;" d="M256 464c115 0 208-93 208-208 0-115-93-208-208-208-115 0-208 93-208 208 0 115 93 208 208 208z m4-318c9 0 17 8 17 17 0 9-8 17-17 17-9 0-17-8-17-17 0-9 8-17 17-17z m34 115c15 14 26 29 26 51 0 34-27 54-60 54-43 0-68-20-68-62l19 0c-1 30 16 46 48 46 23 0 42-15 42-39 0-15-8-29-19-39-23-21-29-36-30-64l19 0c1 26 0 31 23 53z"/>
<glyph unicode="&#57370;" d="M256 464c115 0 208-93 208-208 0-115-93-208-208-208-115 0-208 93-208 208 0 115 93 208 208 208z m0-399c105 0 191 86 191 191 0 105-86 191-191 191-105 0-191-86-191-191 0-105 86-191 191-191z m4 301c33 0 60-21 60-55 0-22-11-36-26-50-23-23-22-27-23-53l-19 0c1 28 7 43 30 64 11 10 19 23 19 38 0 24-19 40-42 40-32 0-49-16-48-46l-19 0c0 42 25 62 68 62z m0-186c9 0 17-8 17-17 0-9-8-17-17-17-9 0-17 8-17 17 0 9 8 17 17 17z"/>
<glyph unicode="&#57371;" d="M256 480c124 0 224-100 224-224 0-124-100-224-224-224-22 0-44 3-64 9 8 14 18 31 23 48 3 10 16 62 16 62 8-15 30-28 54-28 72 0 121 65 121 153 0 66-56 129-142 129-106 0-160-76-160-140 0-39 15-73 46-86 5-2 10 0 12 6 1 4 3 14 4 18 2 6 1 7-3 12-9 11-15 24-15 44 0 57 42 107 110 107 60 0 94-36 94-85 0-65-29-119-71-119-24 0-42 19-36 43 7 28 20 59 20 79 0 18-10 34-30 34-24 0-43-25-43-58 0-21 7-36 7-36 0 0-25-104-29-122-4-17-5-35-4-51-79 35-134 113-134 205 0 124 100 224 224 224z"/>
<glyph unicode="&#57372;" d="M256 480c124 0 224-100 224-224 0-124-100-224-224-224-124 0-224 100-224 224 0 124 100 224 224 224z m136-360c36 36 56 85 56 136 0 51-20 100-56 136-36 36-85 56-136 56-51 0-100-20-136-56-36-36-56-85-56-136 0-51 20-100 56-136 14-14 31-25 48-34 1 6 2 10 3 16 4 18 29 122 29 122 0 0-8 15-8 36 0 33 20 58 44 58 20 0 30-16 30-34 0-20-13-51-20-79-6-24 12-43 35-43 42 0 71 54 71 119 0 49-33 85-93 85-68 0-110-50-110-107 0-20 6-33 15-44 4-5 5-6 3-12-1-4-4-14-5-18-2-6-6-8-11-6-31 13-46 48-46 86 0 64 54 140 160 140 86 0 142-63 142-129 0-88-49-153-121-153-24 0-47 13-55 28 0 0-12-52-15-62-2-6-4-13-7-19 15-4 31-6 47-6 51 0 100 20 136 56z"/>
<glyph unicode="&#57373;" d="M64 112l0 32c0 17-3 83 49 136 35 36 80 53 143 56l0 80 192-128-192-128 0 80c-40-1-63-9-87-20-31-14-55-44-75-77l-20-31z"/>
<glyph unicode="&#57374;" d="M64 112l0 32c0 17-3 83 49 136 35 36 80 53 143 56l0 80 192-128-192-128 0 80c-40-1-63-9-87-20-31-14-55-44-75-77l-20-31z m208 208c-201 0-192-169-192-169 48 81 101 105 192 105l0-65 148 97-148 97z"/>
<glyph unicode="&#57375;" d="M416 160l-104 112 74 0c-7 65-64 112-130 112-71 0-128-57-128-128 0-71 57-128 128-128 28 0 53 8 75 24l6 5 43-46-7-6c-34-27-74-41-117-41-91 0-167 64-187 149l0 0c0 1-1 2-1 3 0 0 0 1 0 1 0 1 0 2 0 2-1 1-1 2-1 3 0 0 0 1 0 1 0 1-1 2-1 4l0 0c-1 6-1 12-2 19l0 1c0 1 0 3 0 4 0 2 0 3 0 5 0 2 0 3 0 5 0 1 0 3 0 4l0 1c1 6 1 13 2 19l0 0c0 1 1 3 1 4 0 0 0 0 0 1 0 1 0 2 1 2 0 1 0 2 0 3 0 0 0 0 0 1 0 1 1 2 1 3l0 0c20 85 96 149 187 149l0 0c11 0 21-1 31-3 1 0 1 0 2 0 0 0 1 0 2 0 57-11 105-47 133-96 13-23 21-49 23-77l65 0z"/>
<glyph unicode="&#57376;" d="M256 464c115 0 208-93 208-208 0-115-93-208-208-208-115 0-208 93-208 208 0 115 93 208 208 208z m0-336c71 0 128 57 128 128l-20 0c0-60-48-108-108-108-60 0-108 48-108 108 0 60 48 108 108 108l0-56 96 56-96 64 0-44c-71 0-128-57-128-128 0-71 57-128 128-128z"/>
<glyph unicode="&#57377;" d="M364 256l20 0c0-71-57-128-128-128-71 0-128 57-128 128 0 71 57 128 128 128l0 44 96-64-96-56 0 56c-60 0-108-48-108-108 0-60 48-108 108-108 60 0 108 48 108 108z m-108 208c115 0 208-93 208-208 0-115-93-208-208-208-115 0-208 93-208 208 0 115 93 208 208 208z m0-399c105 0 191 86 191 191 0 105-86 191-191 191-105 0-191-86-191-191 0-105 86-191 191-191z"/>
<glyph unicode="&#57378;" d="M438 125c14-14 14-37 0-51-14-14-37-14-51 0l-131 131-131-131c-14-14-36-14-50 0-14 14-14 37 0 51l130 131-130 131c-14 14-14 37 0 51 14 14 36 14 50 0l131-131 131 131c14 14 37 14 51 0 14-14 14-37 0-51l-131-131z"/>
<glyph unicode="&#57379;" d="M256 479c124 0 224-100 224-224 0-124-100-224-224-224-124 0-224 100-224 224 0 124 100 224 224 224z m108-299l-75 75 76 75c3 3 3 9 0 12l-22 21c-2 2-4 3-6 3-2 0-3-1-5-3l-76-74-76 74c-2 2-3 3-5 3-2 0-4-1-6-3l-21-21c-3-3-3-9 0-12l76-75-76-76c-2-1-2-3-2-5 0-2 0-4 2-6l21-22c2-2 4-2 6-2 2 0 4 0 6 2l75 76 76-75c2-2 3-3 5-3 2 0 4 1 6 3l21 21c2 1 3 4 3 6 0 2-1 4-3 6z"/>
<glyph unicode="&#57380;" d="M256 48c-115 0-208 93-208 208 0 115 93 208 208 208 115 0 208-93 208-208 0-115-93-208-208-208z"/>
<glyph unicode="&#57381;" d="M256 256c-18 0-32 14-32 32l0 160c0 18 14 32 32 32 18 0 32-14 32-32l0-160c0-18-14-32-32-32z m123 187c61-40 101-109 101-187 0-124-100-224-224-224-124 0-224 100-224 224 0 78 40 147 101 187 5 3 11 5 17 5 18 0 32-14 32-32 0-6-2-12-5-17-2-3-4-6-7-8-1-1-3-2-4-3-8-6-16-12-23-19-30-30-47-70-47-113 0-43 17-83 47-113 30-30 70-47 113-47 43 0 83 17 113 47 30 30 47 70 47 113 0 43-17 83-47 113-7 7-15 13-23 19-1 1-3 2-4 3-3 2-5 5-7 8-3 5-5 11-5 17 0 18 14 32 32 32 6 0 12-2 17-5z"/>
<glyph unicode="&#57382;" d="M305 320c153 0 159-208 159-208-51 93-91 102-159 102l0-92-152 134 152 144z m-257-64l144 136 0-57-82-79 82-68 0-58z"/>
<glyph unicode="&#57383;" d="M448 112c-53 93-122 102-224 102l0-92-160 134 160 144 0-80c187 0 224-208 224-208z"/>
<glyph unicode="&#57384;" d="M120 176c31 0 56-25 56-56 0-31-25-56-56-56-31 0-56 25-56 56 0 31 25 56 56 56z m-56 144c140 0 256-116 256-256l-80 0c0 48-14 94-48 128-34 34-80 48-128 48z m0 128c212 0 384-172 384-384l-80 0c0 171-133 304-304 304z"/>
<glyph unicode="&#57385;" d="M120 176c31 0 56-25 56-56 0-31-25-56-56-56-31 0-56 25-56 56 0 31 25 56 56 56z m0-96c22 0 40 18 40 40 0 22-18 40-40 40-22 0-40-18-40-40 0-22 18-40 40-40z m-56 240c140 0 256-116 256-256l-80 0c0 48-14 94-48 128-34 34-80 48-128 48z m240-240c-2 26-8 52-19 77-12 28-30 54-52 76-22 22-48 40-76 52-25 10-51 16-77 18l0-47c50-3 92-22 123-53 31-31 50-73 53-123z m-240 368c212 0 384-172 384-384l-80 0c0 171-133 304-304 304z m227-156c56-56 89-131 93-212l48 0c-8 190-162 344-352 352l0-48c81-4 155-36 211-92z"/>
<glyph unicode="&#57386;" d="M344 214l-4-7 108-109-34-34-108 109-7-5c-24-15-53-25-83-25-84 0-152 69-152 153 0 84 68 152 152 152 84 0 152-68 152-152 0-30-9-58-24-82z m-43 167c-23 23-53 35-85 35-32 0-62-12-85-35-23-23-35-53-35-85 0-32 12-62 35-85 23-23 53-35 85-35 32 0 62 12 85 35 23 23 36 53 36 85 0 32-13 62-36 85z"/>
<glyph unicode="&#57387;" d="M510 70c6-6-3-27-22-46-19-19-40-28-46-22l-113 113c-4 4-1 15 8 28l-40 40c-31-24-70-39-113-39-102 0-184 82-184 184 0 102 82 184 184 184 102 0 184-82 184-184 0-43-15-82-39-113l40-40c13 9 24 12 28 8z m-326 114c38 0 75 15 102 42 27 27 42 64 42 102 0 38-15 75-42 102-27 27-64 42-102 42-38 0-75-15-102-42-27-27-42-64-42-102 0-38 15-75 42-102 27-27 64-42 102-42z"/>
<glyph unicode="&#57388;" d="M445 125c4-4 4-10 0-14l-43-44c-2-2-5-3-8-3-3 0-5 1-7 3l-84 86c-25-15-52-23-80-23-87 0-159 71-159 159 0 88 72 159 159 159 87 0 158-71 158-159 0-27-7-54-21-78z m-222 261c-53 0-97-43-97-97 0-54 44-97 97-97 53 0 96 43 96 97 0 54-43 97-96 97z"/>
<glyph unicode="&#57389;" d="M448 87l-23-23-113 113c-26-21-60-33-96-33-84 0-152 68-152 152 0 84 68 152 152 152 84 0 152-68 152-152 0-36-12-69-33-95z m-328 112c26-26 60-39 96-39 36 0 70 14 96 40 26 26 40 60 40 96 0 36-14 70-40 96-26 26-60 40-96 40-36 0-70-14-96-40-26-26-40-60-40-96 0-36 14-71 40-97z"/>
<glyph unicode="&#57390;" d="M96 262l320 154-214-200z m320 154l-146-320-52 104z"/>
<glyph unicode="&#57391;" d="M96 262l320 154-146-320-57 115z m132-46l41-83 115 249z m154 168l-248-121 83-36z"/>
<glyph unicode="&#57392;" d="M416 160c44 0 80-36 80-80 0-44-36-80-80-80-44 0-80 36-80 80 0 5 0 10 1 14l-186 104c-14-13-34-22-55-22-44 0-80 36-80 80 0 44 36 80 80 80 21 0 41-9 55-22l186 104c-1 5-1 9-1 14 0 44 36 80 80 80 44 0 80-36 80-80 0-44-36-80-80-80-22 0-42 9-56 23l-186-102c1-5 2-11 2-17 0-6-1-12-2-17l185-102c14 14 35 23 57 23z"/>
<glyph unicode="&#57393;" d="M450 374c10-6 15-25 14-36-1-17-7-36-25-54-1-1-2-1-3-2-26-25-62-30-94-20-1 1-2 2-4 2-5 1-10 0-13-4l-36-39c52-50 107-96 107-96 2-2 2-5 0-7l-50-51c-2-2-5-2-7 0 0 0-44 55-93 107l-92-98c-14-16-40-15-55 0-15 16-15 42 1 56l97 93-12 12c-2 2-3 7-1 10l2 5c-25 26-36 33-56 32-20-1-36-13-48-28-12-15-10-52-8-62 2-10-7-6-12 0-9 10-23 50-6 93 17 43 42 69 48 75 6 6 16 15 24 21 8 6 21-1 27 5 4 4 5 11 5 16l-4 4c-2 2-2 5 0 7l31 31c2 2 5 2 7 0l50-50c2-2 2-6 0-8l-31-31c-2-2-5-2-7 0l-8 9c-7 0-15-5-17-10-3-6-6-21-3-33 3-11 13-20 36-43l5 3c4 2 8 1 10-1 0 0 1-2 13-14l38 37c4 3 5 7 4 13 0 2 0 4-1 5-10 33-6 69 19 96l2 2c18 18 36 25 53 26 10 1 30-5 35-15l-48-48-2-3-1-1c-1-1-1-2-1-4 0-2 0-3 1-5l4-4 41-42 4-4c1-1 2-1 4-1 2 0 3 0 4 1l2 1 2 3z"/>
<glyph unicode="&#57394;" d="M441 96c0-14-11-25-25-25-14 0-25 11-25 25 0 14 11 25 25 25 14 0 25-11 25-25z m-288 0c0-14-11-25-25-25-14 0-25 11-25 25 0 14 11 25 25 25 14 0 25-11 25-25z m-25 320l320 0-15-175c0 0-209-30-244-34-35-4-69-30-74-62l333 0 0-17-352 0c0 0 0 5 2 17 5 35 33 62 65 73l-57 213-42 0 0 17 53 0z"/>
<glyph unicode="&#57395;" d="M441 96c0-14-11-25-25-25-14 0-25 11-25 25 0 14 11 25 25 25 14 0 25-11 25-25z m-288 0c0-14-11-25-25-25-14 0-25 11-25 25 0 14 11 25 25 25 14 0 25-11 25-25z m-25 320l320 0-15-175c0 0-209-30-244-34-35-4-69-30-74-62l333 0 0-17-352 0c0 0 0 5 2 17 5 35 33 62 65 73l-57 213-42 0 0 17 53 0z m288-160l15 143-297 0 44-177c1 0 2 1 3 1z"/>
<glyph unicode="&#57396;" d="M437 215c7-14 11-29 11-46 0-58-47-105-106-105-18 0-35 4-50 12-11-2-22-3-34-3-101 0-183 81-183 181 0 12 2 24 4 36-9 16-15 34-15 53 0 58 47 105 106 105 21 0 41-6 57-16 10 2 20 2 31 2 101 0 183-80 183-180 0-13-1-27-4-39z m-85-47c9 12 12 25 12 40 0 12-2 23-7 32-5 9-12 16-21 22-9 6-19 10-31 14-12 4-26 7-41 10-12 3-20 5-25 6-5 1-10 4-15 6-5 2-7 5-10 8-2 3-4 6-4 10 0 7 3 13 11 18 8 5 19 7 32 7 14 0 25-2 31-7 6-5 11-12 16-20 4-7 8-11 11-14 4-3 9-5 16-5 8 0 13 3 18 8 5 5 8 11 8 17 0 7-2 14-6 21-4 7-10 14-18 20-8 6-18 11-30 15-12 4-27 5-43 5-20 0-38-2-53-8-16-6-28-15-36-25-8-11-12-22-12-36 0-14 3-26 11-36 8-10 19-17 32-23 13-5 29-10 48-14 14-3 26-5 34-8 8-2 14-6 19-11 5-4 7-10 7-17 0-9-4-17-13-23-9-6-22-9-37-9-11 0-20 2-27 5-7 3-11 6-15 11-4 5-8 12-11 19-3 7-6 11-10 15-4 4-10 6-16 6-8 0-14-2-19-7-5-5-8-10-8-17 0-11 4-22 12-33 8-11 18-19 30-26 17-9 39-14 65-14 22 0 42 3 58 10 16 7 29 16 37 28z"/>
<glyph unicode="&#57397;" d="M170 416c-41 0-74-33-74-73 0-13 4-25 10-36l6-11-2-12c-2-10-3-20-3-30 0-40 16-77 44-105 28-28 67-44 107-44 9 0 19 1 28 3l11 2 9-5c11-6 24-9 36-9 41 0 74 33 74 73 0 11-3 22-8 32l-5 10 3 11c2 10 3 21 3 32 0 40-16 77-44 105-28 28-67 43-107 43-9 0-18 0-26-2l-12-2-10 7c-12 7-26 11-40 11z m0 32c21 0 40-6 56-16 10 2 21 2 32 2 101 0 183-80 183-180 0-13-1-27-4-39 7-14 11-29 11-46 0-58-47-105-106-105-18 0-35 4-50 12-11-2-22-3-34-3-101 0-183 81-183 181 0 12 2 24 4 36-9 16-15 34-15 53 0 58 47 105 106 105z m182-280c-8-12-21-21-37-28-16-7-36-10-58-10-26 0-48 5-65 14-12 7-22 15-30 26-8 11-12 22-12 33 0 7 3 12 8 17 5 5 11 7 19 7 6 0 12-2 16-6 4-4 7-8 10-15 3-7 7-13 11-18 4-5 8-9 15-12 7-3 16-5 27-5 15 0 28 4 37 10 9 6 13 13 13 22 0 7-2 13-7 17-5 5-11 9-19 11-8 3-20 5-34 8-19 4-35 9-48 14-13 6-24 13-32 23-8 10-11 22-11 36 0 14 4 25 12 36 8 10 20 19 36 25 15 6 34 8 54 8 16 0 30-1 42-5 12-4 23-9 31-15 8-6 14-13 18-20 4-7 5-14 5-21 0-6-2-12-7-17-5-5-11-8-19-8-7 0-12 2-16 5-3 3-7 7-11 14-5 8-10 15-16 20-6 5-17 8-31 8-13 0-23-3-31-8-8-5-12-11-12-18 0-4 2-7 4-10 3-3 6-6 11-8 5-2 10-5 15-6 5-1 13-3 25-6 15-3 28-6 40-10 12-4 23-8 32-14 9-6 15-13 20-22 5-9 8-20 8-32 0-15-5-28-13-40z"/>
<glyph unicode="&#57398;" d="M344 256l8-8-64-84 0-4c0-18-14-32-32-32-18 0-32 14-32 32 0 18 14 32 32 32l4 0z m-88 160c124 0 224-100 224-224 0-34-8-67-22-96l-36 0c15 27 25 57 26 88l-32 0 0 16 32 0c-1 29-9 56-22 81l-27-15-8 13 27 16c-8 12-16 23-26 33-10 10-21 18-33 26l-16-27-14 8 16 27c-25 13-52 21-81 22l0-32-16 0 0 32c-29-1-56-9-81-22l16-27-14-8-16 27c-12-8-23-16-33-26-10-10-19-21-26-33l28-16-8-13-28 15c-13-25-21-52-22-81l32 0 0-16-32 0c1-31 11-61 26-88l-36 0c-14 29-22 62-22 96 0 124 100 224 224 224z"/>
<glyph unicode="&#57399;" d="M480 305l-140-98 54-159-138 99-138-99 54 159-140 98 171 0 53 159 53-159z"/>
<glyph unicode="&#57400;" d="M480 305l-140-98 54-159-138 99-138-99 54 159-140 98 171 0 53 159 53-159z m-117-214l-43 122 108 75-131 0-41 123-41-123-131 0 108-75-43-122 107 76z"/>
<glyph unicode="&#57401;" d="M128 352c0 21 11 32 32 32 21 0 32-11 32-32 0-21-11-32-32-32-21 0-32 11-32 32z m311-129c6-6 9-14 9-23 0-9-3-16-9-22l-105-105c-6-6-13-9-22-9-9 0-17 3-23 9l-214 207c-8 8-11 17-11 28l0 108c0 9 3 17 9 23 6 6 14 9 23 9l111 0c11 0 20-4 28-12z m-279 81c13 0 25 5 34 14 9 9 14 21 14 34 0 13-5 25-14 34-9 9-21 14-34 14-13 0-25-5-34-14-9-9-14-21-14-34 0-13 5-25 14-34 9-9 21-14 34-14z"/>
<glyph unicode="&#57402;" d="M207 432l-111 0c-9 0-16-7-16-16l0-108c0-6 3-12 7-16l213-207 1 0 0-1c3-3 7-4 11-4 4 0 8 1 11 4l104 105c3 3 5 7 5 11 0 4-2 8-5 11l0 1-204 213c-4 4-10 7-16 7z m0 16c10 0 20-4 28-12l204-213c6-6 9-15 9-23 0-8-3-16-9-22l-105-105c-6-6-14-9-22-9-8 0-17 3-23 9l-214 207c-7 7-11 17-11 28l0 108c0 18 14 32 32 32z m-47-64c-18 0-32-14-32-32 0-18 14-32 32-32 18 0 32 14 32 32 0 18-14 32-32 32z m0 16c26 0 48-22 48-48 0-26-22-48-48-48-26 0-48 22-48 48 0 26 22 48 48 48z"/>
<glyph unicode="&#57403;" d="M321 116c21 0 42 6 63 20l0-65c-18-8-34-15-48-18-14-3-28-5-45-5-19 0-35 2-50 7-14 5-28 12-38 21-10 9-17 18-21 28-4 10-6 25-6 44l0 140-48 0 0 58c16 5 30 14 42 24 12 10 19 21 26 35 7 14 11 37 14 59l62 0 0-112 96 0 0-64-96 0 0-101c0-24 1-40 4-47 2-7 7-12 14-16 9-6 19-8 31-8z"/>
<glyph unicode="&#57404;" d="M321 116c21 0 42 6 63 20l0-65c-18-8-34-15-48-18-14-3-28-5-45-5-19 0-35 2-50 7-14 5-28 12-38 21-10 9-17 18-21 28-4 10-6 25-6 44l0 140-48 0 0 58c16 5 30 14 42 24 12 10 19 21 26 35 7 14 11 37 14 59l62 0 0-112 96 0 0-64-96 0 0-101c0-24 1-40 4-47 2-7 7-12 14-16 9-6 19-8 31-8z m47-35l0 29c-15-6-31-10-47-10-15 0-28 3-40 10-10 6-17 15-21 25-2 6-4 17-4 52l0 117 96 0 0 32-96 0 0 112-32 0c-2-16-7-36-14-50-8-16-17-29-30-40-11-9-23-17-36-23l0-31 48 0 0-156c0-21 2-32 4-38 3-8 10-15 18-22 9-8 19-14 31-18 13-4 29-6 46-6 16 0 28 2 41 5 11 2 23 6 36 12z"/>
<glyph unicode="&#57405;" d="M492 402c-13-20-29-36-48-50l0-12c0-128-98-276-276-276-55 0-105 16-148 44 8-1 15-2 23-2 45 0 87 16 120 42-42 1-78 29-90 67 6-1 12-2 18-2 9 0 18 2 26 4-44 9-78 48-78 95l0 1c13-7 28-12 44-12-26 17-43 47-43 81 0 18 5 34 13 48 48-59 119-97 199-101-2 7-2 14-2 22 0 54 43 97 97 97 28 0 52-12 70-31 22 4 43 13 62 24-7-23-23-42-43-54 20 2 39 7 56 15z"/>
<glyph unicode="&#57406;" d="M492 402c-13-20-29-36-48-50l0-12c0-128-98-276-276-276-55 0-105 16-148 44 8-1 15-2 23-2 45 0 87 16 120 42-42 1-78 29-90 67 6-1 12-2 18-2 9 0 18 2 26 4-44 9-78 48-78 95l0 1c13-7 28-12 44-12-26 17-43 47-43 81 0 18 5 34 13 48 48-59 119-97 199-101-2 7-2 14-2 22 0 54 43 97 97 97 28 0 52-12 70-31 22 4 43 13 62 24-7-23-23-42-43-54 20 2 39 7 56 15z m-58-37c3 2 8 6 11 8-2 0-11-2-19-1-8 1-21 5-21 5 0 0 14 13 18 17l11 11c-4-1-10-2-14-3l-8-2-6 6c-15 16-37 26-59 26-45 0-81-37-81-81 0-6 1-12 2-18l5-21-22 1c-42 2-81 13-118 32-28 14-53 34-75 56-1-6-2-13-2-19 0-27 14-53 36-68 0 0 33-23 46-29-24-2-56 0-56 0-8 0-16 1-24 3 8-28 32-50 62-56l61-10-61-21c-7-2-14-3-21-3 15-20 38-34 64-34l45-1-35-28c-18-14-38-25-60-33-10-3-19-6-29-8 27-9 55-14 84-14 40 0 78 8 112 24 31 14 58 34 81 60 22 24 38 53 50 84 11 30 17 62 17 92l0 12-1 8z"/>
<glyph unicode="&#57407;" d="M400 399l0-15-20 0-24-291c0-16-13-29-29-29l-141 0c-16 0-29 13-29 29l-24 291-21 0 0 15 80 0 0 20c0 16 13 29 29 29l70 0c16 0 29-13 29-29l0-20z m-193 20l0-20 98 0 0 20c0 8-6 14-14 14l-70 0c-8 0-14-6-14-14z m135-325l23 290-217 0 23-290 0-1c0-8 7-14 15-14l141 0c8 0 15 6 15 14z m-93 17l0 241 14 0 0-241z m71 241l-11-241-14 0 10 241z m-114 0l11-241-14 0-11 241z"/>
<glyph unicode="&#57408;" d="M320 399l80 0 0-15-20 0-24-291c0-16-13-29-29-29l-141 0c-16 0-29 13-29 29l-24 291-21 0 0 15 80 0 0 20c0 16 13 29 29 29l70 0c16 0 29-13 29-29z m-113 20l0-20 98 0 0 20c0 8-6 14-14 14l-70 0c-8 0-14-6-14-14z m-4-308l14 0-11 241-14 0z m60 0l0 241-14 0 0-241z m46 0l11 241-14 0-11-241z"/>
<glyph unicode="&#57345;" d="M256 208c9 0 16-7 16-16 0-9-7-16-16-16-9 0-16 7-16 16 0 9 7 16 16 16z m104 80l56 0 0-240-320 0 0 240 56 0 0 72c0 57 46 104 104 104 57 0 104-47 104-104z m-96-127c14 4 24 16 24 31 0 18-14 32-32 32-18 0-32-14-32-32 0-15 10-27 24-31l0-41c0-4 4-8 8-8 4 0 8 4 8 8z m80 127l0 72c0 48-40 88-88 88-48 0-88-40-88-88l0-72z"/>
<glyph unicode="&#57346;" d="M360 288l56 0 0-240-320 0 0 240 56 0 0 72c0 57 46 104 104 104 57 0 104-47 104-104z m-192 72l0-72 176 0 0 72c0 48-40 88-88 88-48 0-88-40-88-88z m232-296l0 208-288 0 0-208z m-112 128c0-15-10-27-24-31l0-41c0-4-4-8-8-8-4 0-8 4-8 8l0 41c-14 4-24 16-24 31 0 18 14 32 32 32 18 0 32-14 32-32z m-32-16c9 0 16 7 16 16 0 9-7 16-16 16-9 0-16-7-16-16 0-9 7-16 16-16z"/>
<glyph unicode="&#57347;" d="M256 208c9 0 16-7 16-16 0-9-7-16-16-16-9 0-16 7-16 16 0 9 7 16 16 16z m-88 80l248 0 0-240-320 0 0 240 56 0 0 72c0 57 46 104 104 104 57 0 104-47 104-104l0-8-16 0 0 8c0 48-40 88-88 88-48 0-88-40-88-88z m96-127c14 4 24 16 24 31 0 18-14 32-32 32-18 0-32-14-32-32 0-15 10-27 24-31l0-41c0-4 4-8 8-8 4 0 8 4 8 8z"/>
<glyph unicode="&#57409;" d="M168 288l248 0 0-240-320 0 0 240 56 0 0 72c0 57 46 104 104 104 57 0 104-47 104-104l0-8-16 0 0 8c0 48-40 88-88 88-48 0-88-40-88-88z m232-224l0 208-288 0 0-208z m-144 160c18 0 32-14 32-32 0-15-10-27-24-31l0-41c0-4-4-8-8-8-4 0-8 4-8 8l0 41c-14 4-24 16-24 31 0 18 14 32 32 32z m0-48c9 0 16 7 16 16 0 9-7 16-16 16-9 0-16-7-16-16 0-9 7-16 16-16z"/>
<glyph unicode="&#57410;" d="M304 384c19 0 33-14 33-33l0-188c0-19-14-35-33-35l-221 0c-19 0-36 16-36 35l0 188c0 19 17 33 36 33z m63-85l98 53 0-192-98 53z"/>
<glyph unicode="&#57411;" d="M304 384c19 0 33-14 33-33l0-188c0-19-14-35-33-35l-221 0c-19 0-36 16-36 35l0 188c0 19 17 33 36 33z m16-221l0 188c0 9-8 16-17 16l-221 0c-9 0-18-7-18-16l0-188c0-9 10-18 19-18l221 0c9 0 16 9 16 18z m47 136l98 53 0-192-98 53z m81 23l-64-33 0-66 64-33z"/>
<glyph unicode="&#57412;" d="M509 363c2-36 3-71 3-107 0-36-1-71-3-107 0-45-33-81-74-81-58-3-118-4-179-4-61 0-121 1-179 4-41 0-74 36-74 81-2 36-3 71-3 107 0 36 2 71 4 107 0 45 32 81 73 81 55 3 112 4 170 4l18 0c58 0 115-1 170-4 41 0 74-36 74-81z m-302-205l145 98-145 99z"/>
<glyph unicode="&#57413;" d="M265 416l-18 0c-65 0-118-2-168-4l-2 0c-23 0-42-22-42-49l0-2c-2-34-3-70-3-105 0-35 1-70 3-104l0-3c0-14 5-26 14-36 8-9 17-13 28-13l2 0c52-2 108-4 166-4l22 0c58 0 113 2 166 4l2 0c11 0 20 4 28 13 9 10 14 22 14 36l0 3c2 34 3 68 3 104 0 36-1 71-3 105l0 3c0 27-19 49-42 49l-2 0c-49 2-103 3-168 3z m0 32c58 0 115 0 170-3 41 0 74-36 74-81 2-36 3-72 3-108 0-36-1-71-3-107 0-45-33-81-74-81-55-3-111-4-168-4l-22 0c-57 0-113 1-168 4-41 0-74 36-74 81-2 36-3 71-3 107 0 36 2 71 4 107 0 45 32 82 73 82 55 2 112 3 170 3z m-58-290l0 197 145-99z"/>
<glyph unicode="&#57414;" d="M462 397c14-14 19-31 18-44-1-13-6-39-32-65-26-26-77-42-113-24-5 3-13 5-21-3-10-9-202-215-202-215-17-19-48-18-66 0-18 18-19 49 0 66 0 0 207 194 215 202 8 8 5 16 3 22-20 47 2 89 24 112 22 24 51 31 65 32 13 1 31-5 44-18l-57-56 10-56 55-10z m-371-328c6 6 6 17 0 23-6 6-16 6-22 0-6-6-6-17 0-23 6-6 16-6 22 0z"/>
<glyph unicode="&#57415;" d="M256 476c-121 0-220-99-220-220 0-121 99-220 220-220 121 0 220 99 220 220 0 121-99 220-220 220z m94-103l46-46-143-142-45-46-46 46-46 46 45 45 47-46 142 143z"/>
<glyph unicode="&#57416;" d="M256 476c-121 0-220-99-220-220 0-121 99-220 220-220 121 0 220 99 220 220 0 121-99 220-220 220z m0-48c95 0 172-77 172-172 0-95-77-172-172-172-95 0-172 77-172 172 0 95 77 172 172 172z m84-68l-127-127-41 41-41-40 82-82 41 40 127 128z"/>
<glyph unicode="&#68;" d="M256 36c121 0 220 99 220 220 0 121-99 220-220 220-121 0-220-99-220-220 0-121 99-220 220-220z m24 109l-166 111 166 111 0-60 118 0 0-102-118 0z"/>
<glyph unicode="&#57417;" d="M256 476c-121 0-220-99-220-220 0-121 99-220 220-220 121 0 220 99 220 220 0 121-99 220-220 220z m-24-109l166-111-166-111 0 60-118 0 0 102 118 0z"/>
<glyph unicode="&#57418;" d="M119 502l0-77 41 0 0 77z m233 0l0-77 41 0 0 77z m-315-37l0-108 438 0 0 108-53 0 0-69-99 0 0 69-134 0 0-69-99 0 0 69z m0-136l0-319 438 0 0 319z m172-74l0 0c22 0 43-11 52-31 4-12 6-25 1-36-6-12-19-19-31-23 23-6 38-21 38-44 0-16-8-31-19-40-12-10-27-15-41-15-40 0-61 18-61 55l36 0c1-16 8-27 23-28 19 2 26 14 27 30 0 10-4 20-12 23-11 5-23 4-34 4l0 28c18 0 41 3 41 23 0 16-6 26-21 27-16-1-24-10-25-24l-35 0c1 35 30 51 61 51z m123-3l32 0 0-183-34 0 0 147c-13-11-28-19-44-24l0 31c19 7 34 17 46 29z"/>
<glyph unicode="&#57419;" d="M256 475c-121 0-219-98-219-219 0-121 98-219 219-219 121 0 219 98 219 219 0 121-98 219-219 219z m0-47c95 0 172-77 172-172 0-95-77-172-172-172-95 0-172 77-172 172 0 95 77 172 172 172z m-60-64l-48-48 60-60-60-60 48-48 60 60 60-60 48 48-60 60 60 60-48 48-60-60z"/>
<glyph unicode="&#57420;" d="M256 475c-121 0-219-98-219-219 0-121 98-219 219-219 121 0 219 98 219 219 0 121-98 219-219 219z m-69-96l69-69 69 69 54-54-69-69 69-69-54-54-69 69-69-69-54 54 69 69-69 69z"/>
<glyph unicode="&#57423;" d="M256 475l-219-438 438 0z m-17-152l34 0 0-58-8-81-18 0-8 81z m0-171l34 0 0-37-34 0z"/>
<glyph unicode="&#57424;" d="M416 434l-320 0c-10 0-17-7-17-17l0-16c0-10 7-17 17-17l320 0c10 0 17 7 17 17l0 16c0 10-7 17-17 17z m-26-135l0 16c0 10-8 17-17 17l-234 0c-9 0-17-7-17-17l0-16c0-10 8-17 17-17l234 0c9 0 17 7 17 17z m8-171l-284 0c-10 0-18-7-18-17l0-16c0-10 8-17 18-17l284 0c10 0 18 7 18 17l0 0 0 16 0 0c0 10-8 17-18 17z m-25 85c0 10-8 17-18 17l-198 0c-10 0-18-7-18-17l0-16c0-10 8-17 18-17l198 0c10 0 18 7 18 17 0 0 0 0 0 0z"/>
<glyph unicode="&#57425;" d="M416 433l-320 0c-10 0-17-8-17-17l0-16c0-10 7-18 17-18l320 0c10 0 17 8 17 18l0 16c0 9-7 17-17 17z m0-101l-320 0c-10 0-17-8-17-17l0-16c0-10 7-18 17-18l320 0c10 0 17 8 17 18l0 16c0 9-7 17-17 17z m0-101l-320 0c-10 0-17-8-17-18l0-16c0-9 7-17 17-17l320 0c10 0 17 8 17 17l0 16c0 10-7 18-17 18z m0-101l-320 0c-10 0-17-8-17-18l0-16c0-9 7-17 17-17l320 0c10 0 17 8 17 17l0 16c0 10-7 18-17 18z"/>
<glyph unicode="&#57426;" d="M416 434l-320 0c-10 0-17-7-17-17l0-16c0-10 7-17 17-17l320 0c10 0 17 7 17 17l0 16c0 10-7 17-17 17z m-320-152l234 0c9 0 17 7 17 17l0 16c0 10-8 18-17 18l-234 0c-10 0-17-8-17-18l0-16c0-10 7-17 17-17z m285-154l-285 0c-10 0-17-7-17-17l0-16c0-10 7-17 17-17l285 0c10 0 17 7 17 17l0 0 0 16 0 0c0 10-7 17-17 17z m-285 52l199 0c9 0 17 7 17 17 0 0 0 0 0 0l0 16c0 10-8 17-17 17l-199 0c-10 0-17-7-17-17l0-16c0-10 7-17 17-17z"/>
<glyph unicode="&#57427;" d="M416 434l-320 0c-10 0-17-7-17-17l0-16c0-10 7-17 17-17l320 0c10 0 17 7 17 17l0 16c0 10-7 17-17 17z m0-102l-234 0c-9 0-17-7-17-17l0-16c0-10 8-17 17-17l234 0c10 0 17 7 17 17l0 16c0 10-7 17-17 17z m0-204l-285 0c-10 0-17-7-17-17l0-16c0-10 7-17 17-17l285 0c9 0 17 7 17 17l0 0 0 16 0 0c0 10-8 17-17 17z m17 85c0 10-7 17-17 17l-199 0c-9 0-17-7-17-17l0-16c0-10 8-17 17-17l199 0c10 0 17 7 17 17 0 0 0 0 0 0z"/>
<glyph unicode="&#57428;" d="M403 123l-15 8c-1 0-3 0-3-1l-6-12c-1 0-1-1-1-1 1-1 1-1 2-2l15-8c0 0 0 0 1 0 1 0 1 0 2 1l6 12c0 0 0 1 0 1 0 1-1 1-1 2z m0 269l-15 9c-1 0-2 0-3-1l-7-11c0-1 0-1 0-2 0 0 1-1 1-1l15-9c1 0 1-1 2-1 0 0 1 1 2 2l6 11c0 0 0 1 0 1 0 1 0 1-1 2z m-30-253l-17 9 0 252 8-5c0-1 1-1 1-1 1 0 2 1 2 1l7 12c0 0 0 1 0 1 0 1-1 1-1 2l-7 3-7 5c-3 2-6 1-9-1l-62-34-62 34c0 0 0 0 0 0 0 0 0 1-1 1 0 0-1 0-2 0 0 0-1 0-2 0-1 0-1 0-2 0-1 0-1 0-2 0 0 0 0-1 0-1 0 0 0 0-1 0l-62-34-62 34c-3 2-7 2-9 1-3-2-5-4-5-7l0-274c0-3 2-5 4-6l67-37c0 0 0 0 0 0 1 0 1 0 1 0 1-1 3-1 4-1 2 0 3 0 4 1 0 0 1 0 1 0 0 0 0 0 0 0l62 34 63-34c0 0 0 0 0 0 0 0 0 0 0 0 1-1 3-1 4-1 2 0 3 0 5 1 0 0 0 0 0 0 0 0 0 0 0 0l62 34 5-2 4-3c1 0 1 0 1 0 1 0 2 1 2 1l7 12c0 1 0 2-1 3z m-219-29l-58 31 0 256 58-31z m134 0l-67 36 0 256 67-36z m144 114l-13 0c-1 0-2-1-2-3l0-27c0-1 1-2 2-2l13 0c1 0 2 1 2 2l0 27c0 2-1 3-2 3z m0-108l-13 0c-1 0-1 0-1 0l-2-1c-1-1-1-1-1-1l-6-12c0 0-1-1 0-1 0-1 0-1 1-2l8-4c2-1 4-2 6-2 5 0 10 3 10 11l0 10c0 1-1 2-2 2z m-5 262l-8 5c-2 0-3 0-4-1l-6-11c0-1-1-1 0-2 0 0 0-1 1-1l7-4 0-8c0-1 1-2 2-2l13 0c1 0 2 1 2 2l0 10c0 8-6 11-7 12z m5-47l-13 0c-1 0-2-1-2-2l0-27c0-1 1-2 2-2l13 0c1 0 2 1 2 2l0 27c0 1-1 2-2 2z m0-161l-13 0c-1 0-2-1-2-2l0-27c0-2 1-3 2-3l13 0c1 0 2 1 2 3l0 27c0 1-1 2-2 2z m0 107l-13 0c-1 0-2-1-2-2l0-27c0-1 1-2 2-2l13 0c1 0 2 1 2 2l0 27c0 1-1 2-2 2z"/>
<glyph unicode="&#57429;" d="M416 434l-320 0c-10 0-17-7-17-17l0-16c0-10 7-17 17-17l320 0c10 0 17 7 17 17l0 16c0 10-7 17-17 17z m0-306l-320 0c-10 0-17-7-17-17l0-16c0-10 7-17 17-17l320 0c10 0 17 7 17 17l0 16c0 10-7 17-17 17z m17 85c0 10-7 17-17 17l-199 0c-9 0-17-7-17-17l0-16c0-10 8-17 17-17l199 0c10 0 17 7 17 17z m0 101c0 10-7 18-17 18l-199 0c-9 0-17-8-17-18l0-16c0-9 8-17 17-17l199 0c10 0 17 8 17 17 0 0 0 0 0 0z m-354-58c0-1 0-2 1-3l0 0 64-36c0-1 1-1 2-1 1 0 3 1 3 3l0 0 0 74c0 2-2 3-3 3-1 0-2 0-2-1l-64-36 0-1c-1 0-1-1-1-2z"/>
<glyph unicode="&#57430;" d="M416 434l-320 0c-10 0-17-7-17-17l0-16c0-10 7-17 17-17l320 0c10 0 17 7 17 17l0 16c0 10-7 17-17 17z m0-306l-320 0c-10 0-17-7-17-17l0-16c0-10 7-17 17-17l320 0c10 0 17 7 17 17l0 16c0 10-7 17-17 17z m17 85c0 10-7 17-17 17l-199 0c-9 0-17-7-17-17l0-16c0-10 8-17 17-17l199 0c10 0 17 7 17 17z m0 101c0 10-7 18-17 18l-199 0c-9 0-17-8-17-18l0-16c0-9 8-17 17-17l199 0c10 0 17 8 17 17 0 0 0 0 0 0z m-351-98c0 0 1 0 2 1l63 36 0 1c1 0 2 1 2 2 0 1-1 2-2 3l0 0-63 36c-1 1-2 1-2 1-2 0-3-1-3-3l0 0 0-74c0-2 1-3 3-3z"/>
<glyph unicode="&#57431;" d="M454 409l-320 0c-9 0-17-8-17-18l0-16c0-9 8-17 17-17l320 0c10 0 18 8 18 17l0 16c0 10-8 18-18 18z m0-128l-320 0c-9 0-17-7-17-17l0-16c0-10 8-17 17-17l320 0c10 0 18 7 18 17l0 16c0 10-8 17-18 17z m0-127l-320 0c-9 0-17-8-17-17l0-16c0-10 8-18 17-18l320 0c10 0 18 8 18 18l0 16c0 9-8 17-18 17z m-363 229c0-14-11-25-25-25-14 0-26 11-26 25 0 15 12 26 26 26 14 0 25-11 25-26z m0-122c0-14-11-25-25-25-14 0-26 11-26 25 0 14 12 26 26 26 14 0 25-12 25-26z m0-132c0-15-11-26-25-26-14 0-26 11-26 26 0 14 12 25 26 25 14 0 25-11 25-25z"/>
<glyph unicode="&#57432;" d="M74 397l0-40 12 0 0 55-11 0-17-17 7-7z m-8-123c4 0 9-2 9-7 0-7-7-12-29-29l0-9 41 0 0 10-23 0c15 11 22 19 22 28 0 11-9 18-21 18-7 0-15-3-21-9l7-8c4 4 8 6 15 6z m9-145c6 1 12 6 12 13 0 9-8 15-21 15-10 0-16-4-21-9l6-7c4 3 9 5 14 5 6 0 10-2 10-6 0-4-4-6-10-6-2 0-6 0-7 0l0-10c1 0 5 0 7 0 8 0 11-2 11-7 0-4-4-7-10-7-6 0-12 3-15 7l-7-8c4-5 12-9 22-9 13 0 22 7 22 16 0 8-8 13-13 13z m375 281l-320 0c-9 0-17-8-17-17l0-16c0-10 8-18 17-18l320 0c10 0 18 8 18 18l0 16c0 9-8 17-18 17z m0-127l-320 0c-9 0-17-8-17-18l0-16c0-9 8-17 17-17l320 0c10 0 18 8 18 17l0 16c0 10-8 18-18 18z m0-128l-320 0c-9 0-17-8-17-17l0-16c0-10 8-18 17-18l320 0c10 0 18 8 18 18l0 16c0 9-8 17-18 17z"/>
<glyph unicode="&#57433;" d="M435 152c-1 6-4 10-9 13l-74 43 0 0c-3 2-7 3-10 3-6 0-12-3-16-7l-22-21c-1-1-4-2-5-3 0 0-25 2-71 48-46 46-48 71-48 71 0 1 2 4 3 5l18 19c7 6 8 17 5 26l-41 76c-3 6-9 10-15 10-5 0-9-2-13-5l-50-50c-5-5-9-14-10-20 0-4-9-81 97-186 89-90 159-97 179-97 4 0 6 0 7 0 6 1 15 5 20 10l50 50c4 5 6 10 5 15z"/>
<glyph unicode="&#57434;" d="M512 256c0-33-11-64-34-92-23-28-54-50-93-66-40-17-83-25-129-25-13 0-27 1-41 2-38-33-82-56-132-69-9-2-20-4-32-6-4 0-7 0-9 3-3 2-4 4-5 8l0 0c-1 1-1 2 0 4 0 1 0 2 0 2 0 1 1 2 2 3l1 3c0 0 1 1 2 2 2 2 2 3 3 3 1 1 4 5 8 10 5 5 8 8 10 10 2 3 5 6 9 12 4 5 7 10 9 14 3 5 5 10 8 17 3 7 5 14 8 22-30 17-54 38-71 63-17 25-26 51-26 80 0 25 7 48 20 71 14 23 32 42 55 58 23 17 50 30 82 39 31 10 64 15 99 15 46 0 89-8 129-25 39-16 70-38 93-66 23-28 34-59 34-92z"/>
<glyph unicode="&#57435;" d="M402 293c0-27-9-51-27-74-17-22-42-40-73-53-31-13-64-20-101-20-16 0-33 2-50 5-24-17-50-29-80-37-6-1-15-3-24-4l-1 0c-2 0-4 0-6 2-2 2-3 4-3 6 0 1 0 1 0 2 0 1 0 1 0 2 0 0 0 1 0 1l1 2c0 0 0 0 1 1 1 1 1 2 1 2 0 0 1 0 1 1 1 1 2 2 2 2 1 1 3 3 6 7 4 3 6 6 8 8 1 2 3 5 6 8 3 4 5 8 7 11 2 4 4 8 6 13-24 14-42 31-56 51-13 20-20 41-20 64 0 26 9 51 27 73 18 22 42 40 73 53 31 13 65 20 101 20 37 0 70-7 101-20 31-13 56-31 73-53 18-22 27-47 27-73z m110-74c0-22-7-44-20-64-14-20-32-36-56-50 2-5 4-9 6-13 2-4 4-7 7-11 3-3 5-6 6-8 2-2 4-5 8-8 3-4 5-6 6-8 1 0 1 0 2-1 0-1 1-1 1-1 0-1 1-1 1-2 0 0 1-1 1-1l1-2c0 0 0 0 0-1 1-2 1-2 0-2 0 0 0-1 0-2 0-3-2-5-4-6-1-2-4-3-6-2-9 1-18 2-24 4-30 8-56 20-80 37-17-3-34-5-50-5-52 0-97 13-135 38 11-1 19-1 25-1 31 0 60 4 88 13 29 8 54 20 76 36 24 18 42 38 55 61 12 23 19 47 19 73 0 14-2 29-7 43 25-14 44-30 59-51 14-20 21-42 21-66z"/>
<glyph unicode="&#57436;" d="M165 384c0 10-4 19-11 26-7 7-16 11-26 11-10 0-19-4-26-11-7-7-11-16-11-26 0-10 4-19 11-26 7-7 16-11 26-11 10 0 19 4 26 11 7 7 11 16 11 26z m304-165c0-10-3-18-10-25l-140-141c-8-7-17-10-26-10-11 0-19 3-26 10l-204 205c-8 7-14 16-19 29-5 12-7 23-7 33l0 119c0 10 3 18 10 26 8 7 16 10 26 10l119 0c10 0 21-2 33-7 13-5 22-11 30-19l204-204c7-7 10-16 10-26z"/>
<glyph unicode="&#57437;" d="M119 375c0 10-3 18-10 25-6 6-14 10-24 10-9 0-17-4-24-10-6-7-10-15-10-25 0-9 4-17 10-24 7-6 15-10 24-10 10 0 18 4 24 10 7 7 10 15 10 24z m285-153c0-10-3-18-10-24l-131-131c-7-7-15-10-24-10-9 0-17 3-24 10l-191 191c-6 6-12 15-17 27-5 11-7 21-7 31l0 111c0 9 3 17 10 24 7 6 15 10 24 10l111 0c9 0 20-3 31-7 12-5 21-11 27-17l191-191c7-7 10-15 10-24z m102 0c0-10-3-18-9-24l-131-131c-7-7-15-10-25-10-6 0-11 1-15 4-4 2-9 6-15 12l126 125c6 6 10 14 10 24 0 9-4 17-10 24l-191 191c-7 6-16 12-27 17-11 4-22 7-31 7l59 0c10 0 20-3 32-7 11-5 20-11 27-17l191-191c6-7 9-15 9-24z"/>
<glyph unicode="&#57421;" d="M314 198c3-17 4-31 5-42 0-10-1-20-5-30-3-10-5-16-6-21-1-4-7-9-18-16-11-7-19-11-23-13-5-2-17-8-36-16-19-9-34-15-43-19-11-4-19-3-24 2-4 5-4 13-1 23 0 0 20 56 20 56 0 0-66 67-66 67 0 0-54-20-54-20-10-4-17-4-22 1-6 5-6 13-2 24 4 10 9 23 16 40 6 17 11 28 14 33 2 6 6 13 11 23 5 10 9 16 13 19 4 2 9 6 15 10 6 4 13 7 21 7 0 0 26 0 26 0 0 0 12-1 37-3 3 4 8 11 14 20 7 8 20 23 40 43 20 21 40 38 60 53 21 15 46 28 75 39 29 10 57 14 84 9 3 0 5-1 7-3 2-1 3-3 3-7 4-28 1-56-9-86-10-29-22-55-39-77-16-22-33-42-50-61-17-18-32-31-44-41 0 0-19-14-19-14m26 151c8-7 17-11 28-11 11 0 20 4 27 11 8 8 12 18 12 29 0 11-4 20-12 29-7 7-16 11-27 11-11 0-20-4-28-11-7-9-11-18-11-29 0-11 4-21 11-29"/>
<glyph unicode="&#57422;" d="M256 502c68 0 126-24 174-72 48-48 72-106 72-174 0-68-24-125-72-174-48-48-106-72-174-72-68 0-126 24-174 72-48 49-72 106-72 174 0 68 24 126 72 174 48 48 106 72 174 72m58-169c0 0 0 40 0 40 0 0-36 0-36 0-16 0-28-6-38-17-11-11-16-25-16-42 0 0 0-22 0-22 0 0-39 0-39 0 0 0 0-38 0-38 0 0 39 0 39 0 0 0 0-114 0-114 0 0 44 0 44 0 0 0 0 114 0 114 0 0 46 0 46 0 0 0 0 38 0 38 0 0-46 0-46 0 0 0 0 26 0 26 0 10 3 15 10 15 0 0 36 0 36 0"/>
<glyph unicode="&#57438;" d="M232 326c3-11 3-20 0-30-3-9-8-14-16-16 0 0-5 0-5 0-14 0-25 10-31 30-2 11-1 20 1 28 4 8 9 13 16 15 0 1 2 1 5 1 15 0 25-9 30-28m24 176c68 0 126-24 174-72 48-48 72-106 72-174 0-68-24-125-72-174-48-48-106-72-174-72-68 0-125 24-174 72-48 49-72 106-72 174 0 68 24 126 72 174 49 48 106 72 174 72m-14-351c20 10 30 26 30 50 0 15-8 30-26 47-9 7-14 13-14 16 0 4 4 9 11 14 11 11 17 25 17 40 0 20-6 34-18 40 0 1 2 2 5 2 3 0 4 0 5 0 14 2 20 5 20 9 0 0 0 2 0 2 0 0-59 0-59 0-4 0-10-1-17-2-7-2-16-7-27-17-11-9-16-22-16-39 0-19 6-32 19-41 8-5 17-8 29-8 0 0 3 0 3 0-2-8 1-17 8-25 0 0-1 0-1 0-47 0-71-16-71-49 0-13 5-24 15-32 9-8 18-12 25-14 7-1 14-2 20-2 0 0 2 0 2 0 0 0 2 0 2 0 13 0 26 3 38 9m130 106c0 0 0 25 0 25 0 0-39 0-39 0 0 0 0 39 0 39 0 0-25 0-25 0 0 0 0-39 0-39 0 0-39 0-39 0 0 0 0-25 0-25 0 0 39 0 39 0 0 0 0-39 0-39 0 0 25 0 25 0 0 0 0 39 0 39 0 0 39 0 39 0m-161-30c11 0 20-3 27-8 6-6 10-14 11-22 1-9-3-17-10-23-7-6-16-9-28-10-12-2-22 0-31 5-9 6-13 13-14 21 0 9 4 18 11 25 7 7 17 11 30 12 0 0 4 0 4 0"/>
<glyph unicode="&#57439;" d="M256 502c68 0 126-24 174-72 48-48 72-106 72-174 0-68-24-125-72-174-48-48-106-72-174-72-68 0-125 24-174 72-48 49-72 106-72 174 0 68 24 126 72 174 49 48 106 72 174 72m-60-347c0 0 0 159 0 159 0 0-50 0-50 0 0 0 0-159 0-159 0 0 50 0 50 0m-25 180c18 0 27 8 27 24 0 17-9 25-27 25-7 0-14-2-19-7-5-5-8-11-8-18 0-16 9-24 27-24m207-180c0 0 0 94 0 94 0 22-5 40-16 52-11 11-24 17-41 17-23 0-39-8-50-25 0 0-1 0-1 0 0 0-3 21-3 21 0 0-43 0-43 0 1-9 1-26 1-51 0 0 0-108 0-108 0 0 50 0 50 0 0 0 0 92 0 92 0 6 1 10 3 12 4 13 12 20 25 20 16 0 25-12 25-35 0 0 0-89 0-89 0 0 50 0 50 0"/>
<glyph unicode="&#57440;" d="M256 502c68 0 126-24 174-72 48-48 72-106 72-174 0-68-24-125-72-174-48-48-106-72-174-72-68 0-126 24-174 72-48 49-72 106-72 174 0 68 24 126 72 174 48 48 106 72 174 72m16-303c28-3 50 8 66 32 16 25 21 53 17 83-3 25-16 44-38 57-21 13-46 17-74 14-23-3-43-12-60-29-18-16-27-36-27-60-2-34 10-54 35-59 4 8 5 13 5 16 0 4-2 8-5 13-3 5-5 9-6 14-4 32 9 57 40 73 32 17 59 14 81-9 17-16 20-42 10-76-9-34-26-49-50-44-13 3-19 12-17 28 3 16 7 30 13 44 5 14 2 24-11 31-14 6-26 0-33-17-8-18-8-33 0-46-1-7-5-21-11-42-5-22-9-37-9-45 0-8 0-25 1-50 17 13 31 42 40 88 15-10 27-16 33-16"/>
<glyph unicode="&#57441;" d="M256 502c68 0 126-24 174-72 48-48 72-106 72-174 0-68-24-125-72-174-48-48-106-72-174-72-68 0-125 24-174 72-48 49-72 106-72 174 0 68 24 126 72 174 49 48 106 72 174 72m100-201c11 8 18 16 24 25-11-4-20-7-28-8 10 7 18 15 22 27-10-5-21-9-31-11-10 9-21 14-36 14-13 0-25-5-34-14-9-10-14-21-14-34 0-1 0-2 1-5 0-3 0-5 0-6-41 2-74 19-99 51-5-8-7-16-7-25 0-17 7-30 22-40-9 0-16 3-22 7 0 0 0-1 0-1 0-12 3-22 10-31 8-9 17-14 29-17-6-1-10-2-13-2-4 0-7 1-9 1 7-22 22-33 45-33-17-14-37-21-60-21 0 0-12 0-12 0 24-14 48-21 74-21 42 0 75 14 100 42 26 28 38 60 38 96 0 0 0 6 0 6"/>
<glyph unicode="&#57442;" d="M256 502c68 0 126-24 174-72 48-48 72-106 72-174 0-68-24-125-72-174-48-48-106-72-174-72-68 0-125 24-174 72-48 49-72 106-72 174 0 68 24 126 72 174 49 48 106 72 174 72m67-351c0 0 0 37 0 37-13-8-25-12-36-12-6 0-12 2-19 5-4 3-6 6-7 9-2 5-3 13-3 27 0 0 0 61 0 61 0 0 56 0 56 0 0 0 0 37 0 37 0 0-56 0-56 0 0 0 0 61 0 61 0 0-33 0-33 0-2-15-5-25-8-31-3-7-9-14-16-20-8-7-16-11-24-14 0 0 0-33 0-33 0 0 26 0 26 0 0 0 0-83 0-83 0-10 1-18 4-25 2-5 6-11 12-16 5-5 12-9 21-13 11-2 20-4 28-4 10 0 19 1 27 3 9 2 19 6 28 11"/>
<glyph unicode="&#57443;" d="M256 502c68 0 126-24 174-72 48-48 72-106 72-174 0-68-24-125-72-174-48-48-106-72-174-72-68 0-125 24-174 72-48 49-72 106-72 174 0 68 24 126 72 174 49 48 106 72 174 72m113-198c4 28-4 44-25 48-20 5-39-2-56-20-10-10-16-21-18-34 13 8 23 8 29-1 6-8 6-19-1-32-15-28-26-43-33-43-5 0-11 16-18 48-2 5-3 12-4 21-2 9-3 16-4 23-2 6-4 13-7 20-2 7-6 12-10 15-4 3-9 4-15 2-9-2-19-7-31-16-11-9-21-18-29-26 0 0-10-12-10-12 0 0 9-12 9-12 2 1 4 2 6 4 2 1 5 3 11 5 5 2 9 2 10-1 2-3 8-22 19-58 11-36 17-56 20-62 5-10 11-17 19-22 9-5 19-5 30 1 19 12 40 32 64 61 24 29 38 59 44 91"/>
<glyph unicode="&#57444;" d="M493 502c13-36 11-70-4-102-15-32-37-59-65-81 0 0 9-12 9-12 5-9 6-19 3-27 0 0-25-81-25-81-4-11-10-18-18-24 0 0-238-168-238-168-14-10-25-9-32 2 0 0-108 156-108 156-4 6-6 13-5 20 2 7 5 13 11 17 0 0 238 168 238 168 9 6 18 9 27 9 0 0 81 0 81 0 11 0 19-5 25-13 0 0 14-21 14-21 58 44 77 93 59 147-4 9-1 16 9 20 11 3 17-1 19-10m-110-240c13 11 19 25 17 41 0 0-16-8-16-8-3-1-5-2-6-2-7 0-11 3-15 9-4 10-1 17 8 21 0 0 13 7 13 7-17 11-32 11-47 0-10-6-16-15-18-26-2-12 1-22 7-32 7-8 15-14 27-16 11-2 21 0 30 6"/>
<glyph unicode="&#57445;" d="M461 410c14 0 26-6 36-16 10-10 15-22 15-36 0 0 0-281 0-281 0-15-5-27-15-37-10-9-22-14-36-14 0 0-26 0-26 0 0 0 0 384 0 384 0 0 26 0 26 0m-461-52c0 14 5 26 15 36 11 10 23 16 36 16 0 0 26 0 26 0 0 0 0-384 0-384 0 0-26 0-26 0-13 0-25 5-36 14-10 10-15 22-15 37 0 0 0 281 0 281m343 105c0 0 0-53 0-53 0 0 56 0 56 0 0 0 0-384 0-384 0 0-286 0-286 0 0 0 0 384 0 384 0 0 56 0 56 0 0 0 0 53 0 53 33 16 62 23 87 23 25 0 54-7 87-23m-31-53c0 0 0 33 0 33-17 9-36 13-56 13-18 0-37-4-56-13 0 0 0-33 0-33 0 0 112 0 112 0"/>
<glyph unicode="&#57446;" d="M473 392c5 2 9 2 11 0 3-3 3-6 0-10-32-47-60-84-84-109-23-26-42-41-56-46-14-5-27-6-37-1-11 4-21 11-31 19-10 8-21 15-32 20-12 6-28 5-48-2-20-7-44-21-71-44 0 0 46-180 46-180 0 0-51 0-51 0 0 0-94 369-94 369 0 0 47 17 47 17 30 22 56 37 78 44 21 7 37 7 50 2 12-6 23-15 32-27 10-11 21-23 32-36 12-13 25-23 41-32 15-8 37-12 66-10 28 2 62 10 101 26"/>
<glyph unicode="&#57447;" d="M233 244c0 0 0-51 0-51 0 0-233 0-233 0 3 77 4 126 5 149 1 37 19 55 51 55 0 0 82 0 82 0 6 9 12 21 19 35 7 14 11 21 12 23 5 9 9 14 12 16 3 2 9 3 19 3 0 0 113 0 113 0 9 0 15-1 19-3 3-3 7-8 11-16 6-11 16-30 31-58 0 0 82 0 82 0 32 0 50-18 51-55 0 0 5-149 5-149 0 0-232 0-232 0 0 0 0 51 0 51 0 0-47 0-47 0m-37 181c0 0-15-28-15-28 0 0 150 0 150 0 0 0-15 28-15 28-4 9-12 13-21 13 0 0-78 0-78 0-9 0-17-4-21-13m84-309c0 0 0 51 0 51 0 0 220 0 220 0-2-30-4-58-5-85-2-29-18-43-46-43 0 0-384 0-384 0-31 0-47 14-47 43 0 0-5 85-5 85 0 0 220 0 220 0 0 0 0-51 0-51 0 0 47 0 47 0"/>
<glyph unicode="&#57448;" d="M371 512c7 0 13-3 18-8 5-5 8-11 8-18 0 0 0-435 0-435 0 0-77 92-77 92 0 0 0 318 0 318 0 7-3 13-8 18-5 5-11 7-18 7 0 0-51 0-51 0 0 17 7 26 21 26 0 0 107 0 107 0m-128-77c7 0 13-2 18-7 5-6 8-12 8-18 0 0 0-410 0-410 0 0-77 92-77 92 0 0-77-92-77-92 0 0 0 410 0 410 0 17 7 25 21 25 0 0 107 0 107 0"/>
<glyph unicode="&#57449;" d="M323 486c7 0 13-2 18-7 5-5 7-11 7-18 0 0 0-435 0-435 0 0-92 92-92 92 0 0-92-92-92-92 0 0 0 435 0 435 0 17 7 25 20 25 0 0 139 0 139 0"/>
<glyph unicode="&#57450;" d="M375 295c5-12 12-21 20-27 9-6 16-10 23-11 8-1 15-5 23-12 8-6 14-16 18-28 7-21-5-49-38-82-33-34-76-61-129-81-56-20-107-27-152-23-45 5-72 17-79 39-7 18-5 37 6 56 11 20 14 39 9 57-19 66-27 117-24 154 3 37 22 70 58 98 9 8 14 16 15 26 1 10 6 17 14 20 9 3 16 1 24-6 7-7 17-10 29-9 45 1 78-11 101-34 23-23 50-69 82-137m-95-207c30 11 57 25 81 44 24 18 41 33 51 46 10 13 14 22 13 26-3 7-11 13-25 17-14 3-35 4-63 0-29-3-61-11-96-24-35-13-65-28-89-45-24-17-40-31-48-43-8-12-11-21-9-27 2-4 10-8 26-11 16-4 39-4 69-2 30 2 60 8 90 19m-32 89c3 1 6 2 11 4 4 1 7 3 8 3 0 0 1-1 1-1 5-13 2-28-8-42-11-15-26-26-46-32-33-13-59-10-78 7 27 23 64 43 112 61"/>
<glyph unicode="&#57451;" d="M499 452c5 7 8 6 8-2 0 0 0-394 0-394 0 0-494 0-494 0-4 0-6 2-7 4-1 2-1 5 2 9 0 0 118 147 118 147 7 8 14 8 20 1 0 0 38-34 38-34 4-2 7-4 11-3 4 0 7 2 9 5 0 0 81 122 81 122 5 9 12 10 19 2 0 0 57-53 57-53 7-7 14-6 20 2 0 0 118 194 118 194"/>
<glyph unicode="&#57452;" d="M435 486c8 0 14-2 19-7 4-5 7-11 7-18 0 0 0-435 0-435 0 0-103 0-103 0 0 0 0 435 0 435 0 17 7 25 21 25 0 0 56 0 56 0m-153-153c7 0 13-3 18-8 5-5 7-11 7-18 0 0 0-281 0-281 0 0-102 0-102 0 0 0 0 281 0 281 0 17 7 26 20 26 0 0 57 0 57 0m-154-154c8 0 14-2 18-7 5-6 8-12 8-18 0 0 0-128 0-128 0 0-103 0-103 0 0 0 0 128 0 128 0 17 7 25 21 25 0 0 56 0 56 0"/>
<glyph unicode="&#57453;" d="M17 222c-14 4-20 13-16 29 3 14 12 20 27 16 0 0 50-12 50-12 0 0-26-41-26-41 0 0-35 8-35 8m455-6c4 4 10 6 16 6 7-1 12-3 16-8 11-11 11-22-1-33 0 0-128-115-128-115-5-4-10-6-16-6-5 0-9 2-14 5 0 0-146 112-146 112 0 0-28 8-28 8 0 0 26 40 26 40 0 0 18-4 18-4 4-1 7-2 8-4 0 0 135-104 135-104 0 0 114 103 114 103m-251 112c0 0-178-280-178-280-4-8-11-12-20-12-4 0-8 2-12 5-5 3-9 8-10 14-1 7 0 12 3 17 0 0 191 300 191 300 3 6 7 9 14 11 6 2 12 1 19-3 0 0 125-80 125-80 0 0 115 166 115 166 4 6 9 9 15 10 6 1 12-1 17-5 13-8 15-18 6-31 0 0-128-185-128-185-9-12-19-14-32-6 0 0-125 79-125 79"/>
<glyph unicode="&#57454;" d="M229 471c0 0 0-188 0-188 0 0-188 0-188 0 6 49 27 92 62 127 35 35 77 56 126 61m55 0c53-7 97-31 133-71 36-41 54-88 54-143 0-59-21-110-63-153-42-42-93-63-153-63-55 0-102 18-142 54-41 36-65 80-72 134 0 0 217 0 217 0 7 0 13 3 18 8 5 4 8 10 8 18 0 0 0 216 0 216"/>
<glyph unicode="&#57455;" d="M442 333c19-47 31-91 34-132 3-41-4-65-20-72-10-4-20-4-31 2-12 5-23 12-34 20-11 9-27 16-50 21-23 5-49 7-77 4-9-1-16-4-21-10-5-5-6-11-3-19 7-19 15-37 23-55 2-3 6-7 13-11 7-4 11-8 12-10 5-12 1-20-11-24-17-7-35-14-53-20-10-4-19 3-27 21-11 26-21 49-30 68-2 4-8 7-17 8-10 2-18 7-24 16-10-3-17-6-19-7-12-4-25-2-38 6-14 8-23 19-28 31-5 11-6 24-2 40 3 16 11 27 22 32 43 17 79 36 109 55 29 19 51 37 63 53 13 16 23 31 30 47 8 15 12 28 13 40 1 11 4 21 8 30 4 9 10 15 18 18 17 7 39-5 67-35 28-31 52-70 73-117m-15-154c3 2 5 8 5 20 1 11-1 28-5 50-5 22-12 44-21 65-10 23-21 44-35 63-13 20-24 34-34 43-9 10-16 13-18 12-3-1-5-8-5-21-1-13 1-31 5-54 4-23 11-46 20-68 10-23 21-43 35-61 14-18 25-31 35-39 9-8 16-11 18-10"/>
<glyph unicode="&#57456;" d="M389 282c10 0 15-9 15-26 0-17-5-26-15-26 0 0-266 0-266 0-10 0-15 9-15 26 0 17 5 26 15 26 0 0 266 0 266 0"/>
<glyph unicode="&#57457;" d="M256 471c59 0 110-21 152-63 42-42 63-93 63-152 0-59-21-110-63-152-42-42-93-63-152-63-59 0-110 21-152 63-42 42-63 93-63 152 0 59 21 110 63 152 42 42 93 63 152 63m129-188c0 0-258 0-258 0 0 0 0-53 0-53 0 0 258 0 258 0 0 0 0 53 0 53"/>
<glyph unicode="&#57458;" d="M410 461c14 0 26-5 36-15 10-10 15-22 15-36 0 0 0-308 0-308 0-13-5-25-15-35-10-11-22-16-36-16 0 0-308 0-308 0-13 0-25 5-35 16-11 10-16 22-16 35 0 0 0 308 0 308 0 14 5 26 16 36 10 10 22 15 35 15 0 0 308 0 308 0m-26-231c0 0 0 52 0 52 0 0-256 0-256 0 0 0 0-52 0-52 0 0 256 0 256 0"/>
<glyph unicode="&#57459;" d="M424 425c11-11 19-22 24-33 5-11 8-19 8-24 0 0 0-9 0-9 0 0-129-129-129-129 0 0-149-147-149-147 0 0-122-27-122-27 0 0 26 123 26 123 0 0 148 148 148 148 0 0 129 129 129 129 19 4 40-6 65-31m-253-328c0 0 12 13 12 13 0 15-9 31-26 48-8 7-16 13-23 18-8 4-14 6-18 6 0 0-7 1-7 1 0 0-12-12-12-12 0 0-9-41-9-41 10-5 17-11 24-17 8-9 14-17 18-25 0 0 41 9 41 9"/>
<glyph unicode="&#57460;" d="M136 425c50 0 81-25 94-75 13-48 6-99-21-154-27-58-65-93-114-105-11-3-22-4-34-4 0 0 0 36 0 36 38 0 69 18 93 55 19 30 23 54 13 75-5 12-16 18-31 18-21 0-38 8-53 23-15 15-22 33-22 54 0 21 7 39 22 54 15 15 32 23 53 23m215 0c50 0 81-25 94-75 13-48 6-99-21-154-27-58-65-93-114-105-11-3-22-4-34-4 0 0 0 36 0 36 38 0 69 18 93 55 19 30 23 54 13 75-5 12-16 18-31 18-21 0-38 8-53 23-15 15-22 33-22 54 0 21 7 39 22 54 15 15 32 23 53 23"/>
<glyph unicode="&#57461;" d="M87 311c42-24 98-36 169-36 71 0 127 12 169 36 0 0-28-249-28-249 0-4-6-10-18-18-11-7-28-15-51-22-23-7-47-11-72-11-25 0-49 4-72 11-22 7-39 15-51 22-11 8-18 14-18 18 0 0-28 249-28 249m250 154c32-6 59-16 81-28 22-13 33-25 33-37 0 0 0-5 0-5 0-20-20-36-58-50-38-14-84-21-137-21-53 0-99 7-137 21-38 14-58 30-58 50 0 0 0 5 0 5 0 12 11 24 33 37 22 12 49 22 81 28 0 0 22 24 22 24 7 9 19 14 35 14 0 0 48 0 48 0 17 0 29-5 35-14 0 0 22-24 22-24m-28-57c0 0 43 0 43 0-31 37-49 59-53 64-5 6-10 8-16 8 0 0-53 0-53 0-7 0-13-2-16-8 0 0-54-64-54-64 0 0 43 0 43 0 0 0 33 33 33 33 0 0 42 0 42 0 0 0 31-33 31-33"/>
<glyph unicode="&#57462;" d="M287 145c0 0 0-33 0-33 24-3 43-9 59-17 16-8 24-18 24-28 0-13-11-23-34-33-22-9-49-14-80-14-31 0-57 5-80 14-22 10-34 20-34 33 0 10 8 20 24 28 16 8 36 14 60 17 0 0 0 33 0 33 0 17-5 32-17 43-11 12-30 27-57 45-20 13-34 23-45 32-11 8-23 21-38 37-15 16-26 34-33 55-7 21-10 44-10 70 0 5 1 9 5 12 4 4 8 5 13 5 0 0 88 0 88 0 16 32 58 48 124 48 67 0 109-16 125-48 0 0 87 0 87 0 5 0 9-1 13-5 4-3 5-7 5-12 0-26-3-49-10-70-7-21-18-39-33-55-15-16-27-29-38-37-11-9-25-19-45-32-26-17-45-32-56-44-12-12-17-27-17-44m70 129c28 20 49 39 65 59 16 20 25 45 28 76 0 0-65 0-65 0-2-54-11-99-28-135m-101 187c-21 0-40-3-55-8-16-5-27-10-33-16-6-6-9-11-9-15 0-5 3-10 9-16 6-6 17-11 33-16 15-5 34-8 55-8 21 0 40 3 55 8 16 5 27 10 33 16 6 6 9 11 9 16 0 4-3 9-9 15-6 6-17 11-33 16-15 5-34 8-55 8m-194-52c3-31 12-56 28-76 16-20 37-39 65-59-17 36-26 81-28 135 0 0-65 0-65 0"/>
<glyph unicode="&#54;" d="M256 475c40 0 77-9 110-29 34-20 60-46 80-80 20-33 29-70 29-110 0-40-9-77-29-110-20-34-46-60-80-80-33-20-70-29-110-29-40 0-77 9-110 29-34 20-60 46-80 80-20 33-29 70-29 110 0 40 9 77 29 110 20 34 46 60 80 80 33 20 70 29 110 29z m37-356l0 54c0 3-1 5-3 7-2 2-4 3-6 3l-55 0c-3 0-5-1-7-3-2-2-3-4-3-7l0-54c0-2 1-5 3-6 2-2 4-3 7-3l55 0c2 0 4 1 6 2 2 2 3 4 3 7z m-1 98l5 178c0 2-1 4-3 5-2 2-4 2-7 2l-62 0c-3 0-5 0-7-2-2-1-3-3-3-5l5-178c0-1 1-3 3-5 1-1 4-2 6-2l53 0c3 0 5 1 7 2 2 2 3 4 3 5z"/>
<glyph unicode="&#57463;" d="M451 357l-66 66c-3 2-6 4-9 4-3 0-7-2-9-4l-176-176-46 47c-5 5-13 5-18 0l-66-66c-2-3-3-6-3-9 0-3 1-7 3-9l121-121c3-2 6-4 9-4 0 0 0 1 0 1 1 0 1-1 1-1 3 0 6 2 9 4l250 250c5 5 5 13 0 18z"/>
<glyph unicode="&#57464;" d="M434 160l-96 96 96 96c4 4 4 10 0 14l-68 68c-4 4-10 4-14 0l-96-96-96 96c-4 4-11 4-14 0l-68-68c-2-1-3-4-3-7 0-2 1-5 3-7l96-96-96-96c-2-2-3-5-3-7 0-3 1-6 3-7l68-68c1-2 4-3 7-3 2 0 5 1 7 3l96 96 96-96c2-2 5-3 7-3 3 0 5 1 7 3l68 68c4 4 4 10 0 14z"/>
<glyph unicode="&#57465;" d="M245 366c-5-4-14-9-25-14l19-11c-34-3-66-22-83-53-17-31-17-67-2-98l-62 34c3 3 6 6 7 10 10 18 3 41-16 51-4 3-8 4-12 5l38 69c3-3 6-5 10-7 6-4 12-5 18-6-2 2-4 3-6 4-9 7-15 14-16 22 0 6 1 16 17 23 5 2 17 10 30 18l-42 23-108-197 379-209 109 197-254 140c0 0-1-1-1-1z m111-189c17 32 16 68 0 99l64-34c-3-3-6-6-8-10-10-18-2-41 17-52 4-2 8-3 12-4l-39-69c-2 3-6 5-9 7-20 11-43 5-53-13-2-4-3-7-4-11l-62 34c34 4 65 23 82 53z m-71 124l7 13 17-9-7-13c11-7 20-16 27-27l-24-23c-8 13-17 21-26 26-4 3-8 4-10 3-3 0-5-1-6-4-1-2-2-4-1-6 1-2 2-5 4-8 2-4 6-8 10-13 9-12 14-21 15-30 2-9 0-18-5-28-6-11-14-18-24-22-9-3-20-3-32 2l-7-13-17 9 7 12c-12 8-22 17-29 29l18 32c4-7 9-14 15-21 6-7 12-11 17-14 5-3 9-4 11-4 3 0 6 2 7 5 1 2 2 4 1 7-1 2-2 5-5 9-3 4-6 9-11 15-5 7-9 13-11 19-2 6-3 12-2 18 1 6 3 12 7 19 6 11 13 18 22 20 9 3 19 3 32-3z m-149 87c10 4 55 33 67 42 13 10 24 17 49 12 25-5 80-10 80-10 0 0 52 29 59 35 39-31 87-90 106-127-11-27-43-48-87-53-29 15-140 76-149 82-8 5-8 13-21 4-13-10-54-32-80-26-26 5-52 28-24 41z"/>
<glyph unicode="&#57466;" d="M466 249l-156 155c-7 8-16 14-27 18l-99 39c-19 7-40 2-55-13l-65-65c-15-15-20-36-13-55l0 0 39-99c4-11 10-20 18-27l155-156c20-19 53-18 74 2l127 127c20 21 21 54 2 74z m-298 55c-22 0-40 18-40 40 0 22 18 40 40 40 22 0 40-18 40-40 0-22-18-40-40-40z m219-162l-15-16c-2-2-6-2-10 2l-16 16c-8-9-18-13-28-16-2 0-4 1-5 3l-11 19c-1 1-1 3 0 4 0 1 0 1 1 2 0 0 1 1 2 1 8 2 20 7 29 15 8 9 12 17 5 24-5 6-15 6-33-2-25-12-46-15-60-1-14 14-13 35-3 54l-19 19c-2 2-2 6 0 8l15 16c3 2 6 2 9-1l16-16c8 7 22 12 30 14 2 0 5-1 6-3l10-19c1-1 1-3 0-4 0 0-1-1-1-1-1-1-1-1-2-2-5-1-22-4-31-12-8-8-11-18-5-24 5-6 15-5 32 3 27 12 46 15 61 0 16-16 16-37 5-57l18-18c2-2 2-6 0-8z"/>
<glyph unicode="&#57467;" d="M65 421l0-363 382 0 0 363z m298-83c-16-77-58-131-107-131-49 0-91 54-107 131-10 3-17 12-17 23 0 14 11 25 24 25 14 0 25-11 25-25 0-9-5-17-12-21 14-66 48-113 87-113 39 0 73 47 88 113-8 4-13 12-13 21 0 14 11 25 25 25 13 0 24-11 24-25 0-11-7-20-17-23z m-77 115l-213 0 16-20 338 0 16 20z"/>
<glyph unicode="&#57468;" d="M260 108l192-62 20 62z m-7 293l-192 62-20-62z m-247-8l0-277 501 0 0 277z m172-245l-82 0c1 4 2 9 2 14 0 25-21 46-46 46-5 0-10-1-14-2l0 97c4-1 9-2 14-2 25 0 46 21 46 46 0 5-1 10-2 14l83 0c-33-24-54-63-54-107 0-43 20-82 53-106z m125 32c-7-10-18-16-33-18l0-18-22 0 0 17c-16 1-31 6-45 14l0 45c8-5 17-10 27-13 10-4 18-6 25-6 7 0 11 1 14 3 3 2 4 5 4 9 0 3-1 6-3 8-2 2-5 4-10 7-5 3-11 6-19 10-10 4-17 9-22 14-6 5-10 11-13 18-2 6-3 15-3 25 0 15 3 26 11 35 7 8 18 13 34 15l0 19 22 0 0-18c15-1 29-6 43-14l-12-39c-15 9-29 13-41 13-6 0-10-1-12-2-2-2-4-5-4-8 0-3 1-6 3-8 2-2 5-4 9-6 4-3 10-5 17-9 15-6 26-14 32-23 7-8 10-19 10-33 0-15-4-28-12-37z m172 26c-4 1-9 2-14 2-25 0-46-21-46-46 0-5 1-10 2-14l-82 0c33 24 54 63 54 106 0 44-22 83-55 107l83 0c-1-4-2-9-2-14 0-25 21-46 46-46 5 0 10 1 14 2z"/>
<glyph unicode="&#57469;" d="M382 178l-252 0 0 91c-7-6-17-11-28-12l0-172c0-8 7-14 14-14l280 0c8 0 14 6 14 14l0 172c-10 1-20 6-28 13z m22 224c2 0 4-1 6-1l0 15c0 8-6 15-14 15l-280 0c-7 0-14-7-14-15l0-15c2 0 5 1 7 1z m0-17l-295 0-56-60c0-23 18-41 40-41 5 0 10 1 14 2 0 0 0 0 0 0 2 1 3 1 4 2 0 0 0 0 0 0 2 1 3 2 4 2 0 0 0 0 0 0 6 4 10 8 13 13 0 0 0 0 0 1 1 1 2 2 2 4l0 0c3 5 4 11 4 17 0-23 18-41 41-41 23 0 41 18 41 41 0-23 18-41 41-41 22 0 40 18 40 41 0-23 19-41 41-41 23 0 41 18 41 41 0-7 2-14 5-20 0 0 0-1 1-1 0-1 1-2 2-3 0 0 0-1 0-1 1-1 2-2 2-3 1 0 1 0 1 0 1-1 2-2 3-3 0 0 0 0 0 0 4-3 8-6 12-7 0 0 1 0 1 0 1-1 3-2 4-2l0 0c3-1 6-1 10-1 22 0 41 18 41 41z"/>
<glyph unicode="&#97;" d="M178 255c-25-16-48-31-64-41-15-10-25-16-27-17l1-1c0 0 0 0 0 0l20-130c0 0 61 59 120 98-11 35-22 71-31 103-6-4-13-8-19-12z m152 103c-6-4-13-9-20-14 9-31 20-66 31-100 18 13 31 24 40 32 45 46 47 80 45 100-3 24-35 76-82 92-48 17-102 2-122-18-15-14-35-42-27-106 7-64 91-309 91-309l86 63c0 0 0 0 0 0l2 1c0 2-4 13-10 30-19 55-60 176-78 247-11 41-18 47-13 65 44-1 72-11 110-39-8-15-18-17-53-44z"/>
<glyph unicode="&#57470;" d="M512 256c0 141-115 256-256 256-141 0-256-115-256-256 0-141 115-256 256-256 141 0 256 115 256 256z m-472 0c0 119 97 216 216 216 119 0 216-97 216-216 0-119-97-216-216-216-119 0-216 97-216 216z m328-30l-112 112-112-112 32-32 80 80 80-80z"/>
<glyph unicode="&#57471;" d="M0 256c0-141 115-256 256-256 141 0 256 115 256 256 0 141-115 256-256 256-141 0-256-115-256-256z m472 0c0-119-97-216-216-216-119 0-216 97-216 216 0 119 97 216 216 216 119 0 216-97 216-216z m-328 30l112-112 112 112-32 32-80-80-80 80z"/>
<glyph unicode="&#57472;" d="M256 512c-141 0-256-115-256-256 0-141 115-256 256-256 141 0 256 115 256 256 0 141-115 256-256 256z m0-472c-119 0-216 97-216 216 0 119 97 216 216 216 119 0 216-97 216-216 0-119-97-216-216-216z m30 328l-112-112 112-112 32 32-80 80 80 80z"/>
<glyph unicode="&#57473;" d="M256 0c141 0 256 115 256 256 0 141-115 256-256 256-141 0-256-115-256-256 0-141 115-256 256-256z m0 472c119 0 216-97 216-216 0-119-97-216-216-216-119 0-216 97-216 216 0 119 97 216 216 216z m-30-328l112 112-112 112-32-32 80-80-80-80z"/>
<glyph unicode="&#57474;" d="M256 492c65 0 120-24 166-70 46-46 70-101 70-166 0-65-24-120-70-166-46-46-101-70-166-70-65 0-120 24-166 70-46 46-70 101-70 166 0 65 24 120 70 166 46 46 101 70 166 70m0-420c51 0 95 18 131 54 35 36 53 79 53 130 0 51-18 95-53 131-36 35-80 53-131 53-51 0-94-18-130-53-36-36-54-80-54-131 0-51 18-94 54-130 36-36 79-54 130-54m18 317c0 0 0-125 0-125 0 0 77-77 77-77 0 0-25-25-25-25 0 0-87 87-87 87 0 0 0 140 0 140 0 0 35 0 35 0"/>
<glyph unicode="&#57475;" d="M288 466c58 0 107-21 148-62 40-40 61-90 61-148 0-58-21-108-61-148-41-41-90-62-148-62-47 0-90 15-129 45 0 0 36 39 36 39 28-20 59-31 93-31 43 0 80 16 110 46 31 31 46 68 46 111 0 44-15 81-46 112-30 30-67 46-110 46-43 0-79-15-109-44-31-30-47-66-48-108 0 0 73 0 73 0 0 0-94-105-94-105 0 0-95 105-95 105 0 0 64 0 64 0 1 57 22 105 63 145 40 39 89 59 146 59m-19-97c0 0 36 0 36 0 0 0 0-105 0-105 0 0 67-66 67-66 0 0-26-26-26-26 0 0-77 77-77 77 0 0 0 120 0 120"/>
<glyph unicode="&#57476;" d="M352 128c-27-20-60-32-96-32-88 0-160 72-160 160 0 23 5 44 14 64l-46 0 0 50c-20-34-32-72-32-114 0-124 100-224 224-224 54 0 102 20 141 51l19-19 0 96-96 0z m-128 0l64 0 0 64-64 0z m64 256l-64 0 0-160 64 0z m192-128c0 124-100 224-224 224-54 0-102-20-141-51l-19 19 0-96 96 0-32 32c27 20 60 32 96 32 88 0 160-72 160-160 0-23-5-44-13-64l45 0 0-50c20 34 32 72 32 114z"/>
</font>
</defs>
</svg>
